<?xml version='1.0' encoding='UTF-8'?>
<!DOCTYPE svg PUBLIC "-//W3C//DTD SVG 1.0//EN" "http://www.w3.org/TR/2001/REC-SVG-20010904/DTD/svg10.dtd">
<svg viewBox="0 0 1600 520" xmlns="http://www.w3.org/2000/svg" xmlns:inkspace="http://www.inkscape.org/namespaces/inkscape" xmlns:xlink="http://www.w3.org/1999/xlink">
  <defs id="defs_block">
    <filter height="1.504" id="filter_blur" inkspace:collect="always" width="1.1575" x="-0.07875" y="-0.252">
      <feGaussianBlur id="feGaussianBlur3780" inkspace:collect="always" stdDeviation="4.2" />
    </filter>
  </defs>
  <title>blockdiag</title>
  <desc>blockdiag
{
    default_shape = roundedbox
    orientation = portrait

    // Nodes
    N63220684 [label= "TopLevelExpression"];
    N32115247063220684 [label= "Expression", numbered = 0];
    N20601768032115247063220684 [label= "FunctionCallExpression"];
    N51198184020601768032115247063220684 [label= "foo", shape = circle];
    N58130472120601768032115247063220684 [label= "(", shape = circle];
    N53412201220601768032115247063220684 [label= "Expression", numbered = 0];
    N10947764053412201220601768032115247063220684 [label= "ConstExpression"];
    N31421019010947764053412201220601768032115247063220684 [label= "1", shape = circle];
    N14353717320601768032115247063220684 [label= ",", shape = circle];
    N62074597420601768032115247063220684 [label= "Expression", numbered = 0];
    N21800467062074597420601768032115247063220684 [label= "ConstExpression"];
    N61986480021800467062074597420601768032115247063220684 [label= "2", shape = circle];
    N21007413520601768032115247063220684 [label= ",", shape = circle];
    N54848996620601768032115247063220684 [label= "Expression", numbered = 0];
    N23878916054848996620601768032115247063220684 [label= "ConstExpression"];
    N13583655023878916054848996620601768032115247063220684 [label= "3", shape = circle];
    N55144039720601768032115247063220684 [label= ")", shape = circle];

    // Edges
    N20601768032115247063220684 -&gt; N51198184020601768032115247063220684
    N20601768032115247063220684 -&gt; N58130472120601768032115247063220684
    N10947764053412201220601768032115247063220684 -&gt; N31421019010947764053412201220601768032115247063220684
    N53412201220601768032115247063220684 -&gt; N10947764053412201220601768032115247063220684
    N20601768032115247063220684 -&gt; N53412201220601768032115247063220684
    N20601768032115247063220684 -&gt; N14353717320601768032115247063220684
    N21800467062074597420601768032115247063220684 -&gt; N61986480021800467062074597420601768032115247063220684
    N62074597420601768032115247063220684 -&gt; N21800467062074597420601768032115247063220684
    N20601768032115247063220684 -&gt; N62074597420601768032115247063220684
    N20601768032115247063220684 -&gt; N21007413520601768032115247063220684
    N23878916054848996620601768032115247063220684 -&gt; N13583655023878916054848996620601768032115247063220684
    N54848996620601768032115247063220684 -&gt; N23878916054848996620601768032115247063220684
    N20601768032115247063220684 -&gt; N54848996620601768032115247063220684
    N20601768032115247063220684 -&gt; N55144039720601768032115247063220684
    N32115247063220684 -&gt; N20601768032115247063220684
    N63220684 -&gt; N32115247063220684
}
</desc>
  <path d="M 75 46 L 187 46 A8,8 0 0 1 195 54 L 195 78 A8,8 0 0 1 187 86 L 75 86 A8,8 0 0 1 67 78 L 67 54 A8,8 0 0 1 75 46" fill="rgb(0,0,0)" stroke="rgb(0,0,0)" style="filter:url(#filter_blur);opacity:0.7;fill-opacity:1" />
  <path d="M 75 126 L 187 126 A8,8 0 0 1 195 134 L 195 158 A8,8 0 0 1 187 166 L 75 166 A8,8 0 0 1 67 158 L 67 134 A8,8 0 0 1 75 126" fill="rgb(0,0,0)" stroke="rgb(0,0,0)" style="filter:url(#filter_blur);opacity:0.7;fill-opacity:1" />
  <path d="M 75 206 L 187 206 A8,8 0 0 1 195 214 L 195 238 A8,8 0 0 1 187 246 L 75 246 A8,8 0 0 1 67 238 L 67 214 A8,8 0 0 1 75 206" fill="rgb(0,0,0)" stroke="rgb(0,0,0)" style="filter:url(#filter_blur);opacity:0.7;fill-opacity:1" />
  <ellipse cx="131" cy="306" fill="rgb(0,0,0)" rx="24" ry="24" stroke="rgb(0,0,0)" style="filter:url(#filter_blur);opacity:0.7;fill-opacity:1" />
  <ellipse cx="323" cy="306" fill="rgb(0,0,0)" rx="24" ry="24" stroke="rgb(0,0,0)" style="filter:url(#filter_blur);opacity:0.7;fill-opacity:1" />
  <path d="M 459 286 L 571 286 A8,8 0 0 1 579 294 L 579 318 A8,8 0 0 1 571 326 L 459 326 A8,8 0 0 1 451 318 L 451 294 A8,8 0 0 1 459 286" fill="rgb(0,0,0)" stroke="rgb(0,0,0)" style="filter:url(#filter_blur);opacity:0.7;fill-opacity:1" />
  <ellipse cx="707" cy="306" fill="rgb(0,0,0)" rx="24" ry="24" stroke="rgb(0,0,0)" style="filter:url(#filter_blur);opacity:0.7;fill-opacity:1" />
  <path d="M 843 286 L 955 286 A8,8 0 0 1 963 294 L 963 318 A8,8 0 0 1 955 326 L 843 326 A8,8 0 0 1 835 318 L 835 294 A8,8 0 0 1 843 286" fill="rgb(0,0,0)" stroke="rgb(0,0,0)" style="filter:url(#filter_blur);opacity:0.7;fill-opacity:1" />
  <ellipse cx="1091" cy="306" fill="rgb(0,0,0)" rx="24" ry="24" stroke="rgb(0,0,0)" style="filter:url(#filter_blur);opacity:0.7;fill-opacity:1" />
  <path d="M 1227 286 L 1339 286 A8,8 0 0 1 1347 294 L 1347 318 A8,8 0 0 1 1339 326 L 1227 326 A8,8 0 0 1 1219 318 L 1219 294 A8,8 0 0 1 1227 286" fill="rgb(0,0,0)" stroke="rgb(0,0,0)" style="filter:url(#filter_blur);opacity:0.7;fill-opacity:1" />
  <ellipse cx="1475" cy="306" fill="rgb(0,0,0)" rx="24" ry="24" stroke="rgb(0,0,0)" style="filter:url(#filter_blur);opacity:0.7;fill-opacity:1" />
  <path d="M 459 366 L 571 366 A8,8 0 0 1 579 374 L 579 398 A8,8 0 0 1 571 406 L 459 406 A8,8 0 0 1 451 398 L 451 374 A8,8 0 0 1 459 366" fill="rgb(0,0,0)" stroke="rgb(0,0,0)" style="filter:url(#filter_blur);opacity:0.7;fill-opacity:1" />
  <ellipse cx="515" cy="466" fill="rgb(0,0,0)" rx="24" ry="24" stroke="rgb(0,0,0)" style="filter:url(#filter_blur);opacity:0.7;fill-opacity:1" />
  <path d="M 843 366 L 955 366 A8,8 0 0 1 963 374 L 963 398 A8,8 0 0 1 955 406 L 843 406 A8,8 0 0 1 835 398 L 835 374 A8,8 0 0 1 843 366" fill="rgb(0,0,0)" stroke="rgb(0,0,0)" style="filter:url(#filter_blur);opacity:0.7;fill-opacity:1" />
  <ellipse cx="899" cy="466" fill="rgb(0,0,0)" rx="24" ry="24" stroke="rgb(0,0,0)" style="filter:url(#filter_blur);opacity:0.7;fill-opacity:1" />
  <path d="M 1227 366 L 1339 366 A8,8 0 0 1 1347 374 L 1347 398 A8,8 0 0 1 1339 406 L 1227 406 A8,8 0 0 1 1219 398 L 1219 374 A8,8 0 0 1 1227 366" fill="rgb(0,0,0)" stroke="rgb(0,0,0)" style="filter:url(#filter_blur);opacity:0.7;fill-opacity:1" />
  <ellipse cx="1283" cy="466" fill="rgb(0,0,0)" rx="24" ry="24" stroke="rgb(0,0,0)" style="filter:url(#filter_blur);opacity:0.7;fill-opacity:1" />
  <path d="M 72 40 L 184 40 A8,8 0 0 1 192 48 L 192 72 A8,8 0 0 1 184 80 L 72 80 A8,8 0 0 1 64 72 L 64 48 A8,8 0 0 1 72 40" fill="rgb(255,255,255)" stroke="rgb(0,0,0)" />
  <text fill="rgb(0,0,0)" font-family="sans-serif" font-size="11" font-style="normal" font-weight="normal" text-anchor="middle" textLength="108" x="128" y="66">TopLevelExpression</text>
  <path d="M 72 120 L 184 120 A8,8 0 0 1 192 128 L 192 152 A8,8 0 0 1 184 160 L 72 160 A8,8 0 0 1 64 152 L 64 128 A8,8 0 0 1 72 120" fill="rgb(255,255,255)" stroke="rgb(0,0,0)" />
  <text fill="rgb(0,0,0)" font-family="sans-serif" font-size="11" font-style="normal" font-weight="normal" text-anchor="middle" textLength="60" x="128" y="146">Expression</text>
  <ellipse cx="64" cy="120" fill="pink" rx="12" ry="12" stroke="rgb(0,0,0)" />
  <text fill="rgb(0,0,0)" font-family="sans-serif" font-size="11" font-style="normal" font-weight="normal" text-anchor="middle" textLength="6" x="64" y="125">0</text>
  <path d="M 72 200 L 184 200 A8,8 0 0 1 192 208 L 192 232 A8,8 0 0 1 184 240 L 72 240 A8,8 0 0 1 64 232 L 64 208 A8,8 0 0 1 72 200" fill="rgb(255,255,255)" stroke="rgb(0,0,0)" />
  <text fill="rgb(0,0,0)" font-family="sans-serif" font-size="11" font-style="normal" font-weight="normal" text-anchor="middle" textLength="126" x="128" y="220">FunctionCallExpressio</text>
  <text fill="rgb(0,0,0)" font-family="sans-serif" font-size="11" font-style="normal" font-weight="normal" text-anchor="middle" textLength="6" x="128" y="232">n</text>
  <ellipse cx="128" cy="300" fill="rgb(255,255,255)" rx="24" ry="24" stroke="rgb(0,0,0)" />
  <text fill="rgb(0,0,0)" font-family="sans-serif" font-size="11" font-style="normal" font-weight="normal" text-anchor="middle" textLength="18" x="128" y="305">foo</text>
  <ellipse cx="320" cy="300" fill="rgb(255,255,255)" rx="24" ry="24" stroke="rgb(0,0,0)" />
  <text fill="rgb(0,0,0)" font-family="sans-serif" font-size="11" font-style="normal" font-weight="normal" text-anchor="middle" textLength="6" x="320" y="306">(</text>
  <path d="M 456 280 L 568 280 A8,8 0 0 1 576 288 L 576 312 A8,8 0 0 1 568 320 L 456 320 A8,8 0 0 1 448 312 L 448 288 A8,8 0 0 1 456 280" fill="rgb(255,255,255)" stroke="rgb(0,0,0)" />
  <text fill="rgb(0,0,0)" font-family="sans-serif" font-size="11" font-style="normal" font-weight="normal" text-anchor="middle" textLength="60" x="512" y="306">Expression</text>
  <ellipse cx="448" cy="280" fill="pink" rx="12" ry="12" stroke="rgb(0,0,0)" />
  <text fill="rgb(0,0,0)" font-family="sans-serif" font-size="11" font-style="normal" font-weight="normal" text-anchor="middle" textLength="6" x="448" y="285">0</text>
  <ellipse cx="704" cy="300" fill="rgb(255,255,255)" rx="24" ry="24" stroke="rgb(0,0,0)" />
  <text fill="rgb(0,0,0)" font-family="sans-serif" font-size="11" font-style="normal" font-weight="normal" text-anchor="middle" textLength="6" x="704" y="306">,</text>
  <path d="M 840 280 L 952 280 A8,8 0 0 1 960 288 L 960 312 A8,8 0 0 1 952 320 L 840 320 A8,8 0 0 1 832 312 L 832 288 A8,8 0 0 1 840 280" fill="rgb(255,255,255)" stroke="rgb(0,0,0)" />
  <text fill="rgb(0,0,0)" font-family="sans-serif" font-size="11" font-style="normal" font-weight="normal" text-anchor="middle" textLength="60" x="896" y="306">Expression</text>
  <ellipse cx="832" cy="280" fill="pink" rx="12" ry="12" stroke="rgb(0,0,0)" />
  <text fill="rgb(0,0,0)" font-family="sans-serif" font-size="11" font-style="normal" font-weight="normal" text-anchor="middle" textLength="6" x="832" y="285">0</text>
  <ellipse cx="1088" cy="300" fill="rgb(255,255,255)" rx="24" ry="24" stroke="rgb(0,0,0)" />
  <text fill="rgb(0,0,0)" font-family="sans-serif" font-size="11" font-style="normal" font-weight="normal" text-anchor="middle" textLength="6" x="1088" y="306">,</text>
  <path d="M 1224 280 L 1336 280 A8,8 0 0 1 1344 288 L 1344 312 A8,8 0 0 1 1336 320 L 1224 320 A8,8 0 0 1 1216 312 L 1216 288 A8,8 0 0 1 1224 280" fill="rgb(255,255,255)" stroke="rgb(0,0,0)" />
  <text fill="rgb(0,0,0)" font-family="sans-serif" font-size="11" font-style="normal" font-weight="normal" text-anchor="middle" textLength="60" x="1280" y="306">Expression</text>
  <ellipse cx="1216" cy="280" fill="pink" rx="12" ry="12" stroke="rgb(0,0,0)" />
  <text fill="rgb(0,0,0)" font-family="sans-serif" font-size="11" font-style="normal" font-weight="normal" text-anchor="middle" textLength="6" x="1216" y="285">0</text>
  <ellipse cx="1472" cy="300" fill="rgb(255,255,255)" rx="24" ry="24" stroke="rgb(0,0,0)" />
  <text fill="rgb(0,0,0)" font-family="sans-serif" font-size="11" font-style="normal" font-weight="normal" text-anchor="middle" textLength="6" x="1472" y="306">)</text>
  <path d="M 456 360 L 568 360 A8,8 0 0 1 576 368 L 576 392 A8,8 0 0 1 568 400 L 456 400 A8,8 0 0 1 448 392 L 448 368 A8,8 0 0 1 456 360" fill="rgb(255,255,255)" stroke="rgb(0,0,0)" />
  <text fill="rgb(0,0,0)" font-family="sans-serif" font-size="11" font-style="normal" font-weight="normal" text-anchor="middle" textLength="90" x="512" y="386">ConstExpression</text>
  <ellipse cx="512" cy="460" fill="rgb(255,255,255)" rx="24" ry="24" stroke="rgb(0,0,0)" />
  <text fill="rgb(0,0,0)" font-family="sans-serif" font-size="11" font-style="normal" font-weight="normal" text-anchor="middle" textLength="6" x="512" y="465">1</text>
  <path d="M 840 360 L 952 360 A8,8 0 0 1 960 368 L 960 392 A8,8 0 0 1 952 400 L 840 400 A8,8 0 0 1 832 392 L 832 368 A8,8 0 0 1 840 360" fill="rgb(255,255,255)" stroke="rgb(0,0,0)" />
  <text fill="rgb(0,0,0)" font-family="sans-serif" font-size="11" font-style="normal" font-weight="normal" text-anchor="middle" textLength="90" x="896" y="386">ConstExpression</text>
  <ellipse cx="896" cy="460" fill="rgb(255,255,255)" rx="24" ry="24" stroke="rgb(0,0,0)" />
  <text fill="rgb(0,0,0)" font-family="sans-serif" font-size="11" font-style="normal" font-weight="normal" text-anchor="middle" textLength="6" x="896" y="465">2</text>
  <path d="M 1224 360 L 1336 360 A8,8 0 0 1 1344 368 L 1344 392 A8,8 0 0 1 1336 400 L 1224 400 A8,8 0 0 1 1216 392 L 1216 368 A8,8 0 0 1 1224 360" fill="rgb(255,255,255)" stroke="rgb(0,0,0)" />
  <text fill="rgb(0,0,0)" font-family="sans-serif" font-size="11" font-style="normal" font-weight="normal" text-anchor="middle" textLength="90" x="1280" y="386">ConstExpression</text>
  <ellipse cx="1280" cy="460" fill="rgb(255,255,255)" rx="24" ry="24" stroke="rgb(0,0,0)" />
  <text fill="rgb(0,0,0)" font-family="sans-serif" font-size="11" font-style="normal" font-weight="normal" text-anchor="middle" textLength="6" x="1280" y="465">3</text>
  <path d="M 128 80 L 128 112" fill="none" stroke="rgb(0,0,0)" />
  <polygon fill="rgb(0,0,0)" points="128,119 124,112 132,112 128,119" stroke="rgb(0,0,0)" />
  <path d="M 128 160 L 128 192" fill="none" stroke="rgb(0,0,0)" />
  <polygon fill="rgb(0,0,0)" points="128,199 124,192 132,192 128,199" stroke="rgb(0,0,0)" />
  <path d="M 128 240 L 128 260" fill="none" stroke="rgb(0,0,0)" />
  <path d="M 128 260 L 1280 260" fill="none" stroke="rgb(0,0,0)" />
  <path d="M 1280 260 L 1280 272" fill="none" stroke="rgb(0,0,0)" />
  <polygon fill="rgb(0,0,0)" points="1280,279 1276,272 1284,272 1280,279" stroke="rgb(0,0,0)" />
  <path d="M 128 240 L 128 260" fill="none" stroke="rgb(0,0,0)" />
  <path d="M 128 260 L 704 260" fill="none" stroke="rgb(0,0,0)" />
  <path d="M 704 260 L 704 268" fill="none" stroke="rgb(0,0,0)" />
  <polygon fill="rgb(0,0,0)" points="704,275 700,268 708,268 704,275" stroke="rgb(0,0,0)" />
  <path d="M 128 240 L 128 268" fill="none" stroke="rgb(0,0,0)" />
  <polygon fill="rgb(0,0,0)" points="128,275 124,268 132,268 128,275" stroke="rgb(0,0,0)" />
  <path d="M 128 240 L 128 260" fill="none" stroke="rgb(0,0,0)" />
  <path d="M 128 260 L 1088 260" fill="none" stroke="rgb(0,0,0)" />
  <path d="M 1088 260 L 1088 268" fill="none" stroke="rgb(0,0,0)" />
  <polygon fill="rgb(0,0,0)" points="1088,275 1084,268 1092,268 1088,275" stroke="rgb(0,0,0)" />
  <path d="M 128 240 L 128 260" fill="none" stroke="rgb(0,0,0)" />
  <path d="M 128 260 L 512 260" fill="none" stroke="rgb(0,0,0)" />
  <path d="M 512 260 L 512 272" fill="none" stroke="rgb(0,0,0)" />
  <polygon fill="rgb(0,0,0)" points="512,279 508,272 516,272 512,279" stroke="rgb(0,0,0)" />
  <path d="M 128 240 L 128 260" fill="none" stroke="rgb(0,0,0)" />
  <path d="M 128 260 L 320 260" fill="none" stroke="rgb(0,0,0)" />
  <path d="M 320 260 L 320 268" fill="none" stroke="rgb(0,0,0)" />
  <polygon fill="rgb(0,0,0)" points="320,275 316,268 324,268 320,275" stroke="rgb(0,0,0)" />
  <path d="M 128 240 L 128 260" fill="none" stroke="rgb(0,0,0)" />
  <path d="M 128 260 L 1472 260" fill="none" stroke="rgb(0,0,0)" />
  <path d="M 1472 260 L 1472 268" fill="none" stroke="rgb(0,0,0)" />
  <polygon fill="rgb(0,0,0)" points="1472,275 1468,268 1476,268 1472,275" stroke="rgb(0,0,0)" />
  <path d="M 128 240 L 128 260" fill="none" stroke="rgb(0,0,0)" />
  <path d="M 128 260 L 896 260" fill="none" stroke="rgb(0,0,0)" />
  <path d="M 896 260 L 896 272" fill="none" stroke="rgb(0,0,0)" />
  <polygon fill="rgb(0,0,0)" points="896,279 892,272 900,272 896,279" stroke="rgb(0,0,0)" />
  <path d="M 512 320 L 512 352" fill="none" stroke="rgb(0,0,0)" />
  <polygon fill="rgb(0,0,0)" points="512,359 508,352 516,352 512,359" stroke="rgb(0,0,0)" />
  <path d="M 512 400 L 512 428" fill="none" stroke="rgb(0,0,0)" />
  <polygon fill="rgb(0,0,0)" points="512,435 508,428 516,428 512,435" stroke="rgb(0,0,0)" />
  <path d="M 896 320 L 896 352" fill="none" stroke="rgb(0,0,0)" />
  <polygon fill="rgb(0,0,0)" points="896,359 892,352 900,352 896,359" stroke="rgb(0,0,0)" />
  <path d="M 896 400 L 896 428" fill="none" stroke="rgb(0,0,0)" />
  <polygon fill="rgb(0,0,0)" points="896,435 892,428 900,428 896,435" stroke="rgb(0,0,0)" />
  <path d="M 1280 320 L 1280 352" fill="none" stroke="rgb(0,0,0)" />
  <polygon fill="rgb(0,0,0)" points="1280,359 1276,352 1284,352 1280,359" stroke="rgb(0,0,0)" />
  <path d="M 1280 400 L 1280 428" fill="none" stroke="rgb(0,0,0)" />
  <polygon fill="rgb(0,0,0)" points="1280,435 1276,428 1284,428 1280,435" stroke="rgb(0,0,0)" />
</svg>
