<?xml version='1.0' encoding='UTF-8'?>
<!DOCTYPE svg PUBLIC "-//W3C//DTD SVG 1.0//EN" "http://www.w3.org/TR/2001/REC-SVG-20010904/DTD/svg10.dtd">
<svg viewBox="0 0 1216 600" xmlns="http://www.w3.org/2000/svg" xmlns:inkspace="http://www.inkscape.org/namespaces/inkscape" xmlns:xlink="http://www.w3.org/1999/xlink">
  <defs id="defs_block">
    <filter height="1.504" id="filter_blur" inkspace:collect="always" width="1.1575" x="-0.07875" y="-0.252">
      <feGaussianBlur id="feGaussianBlur3780" inkspace:collect="always" stdDeviation="4.2" />
    </filter>
  </defs>
  <title>blockdiag</title>
  <desc>blockdiag
{
    default_shape = roundedbox
    orientation = portrait

    // Nodes
    N21083178 [label= "TopLevelExpression"];
    N55530882021083178 [label= "Expression", numbered = 0];
    N30015890055530882021083178 [label= "ParenExpression"];
    N1707556030015890055530882021083178 [label= "(", shape = circle];
    N15368010130015890055530882021083178 [label= "Expression", numbered = 0];
    N4094363015368010130015890055530882021083178 [label= "ConstExpression"];
    N3684927404094363015368010130015890055530882021083178 [label= "1", shape = circle];
    N63208015115368010130015890055530882021083178 [label= "Binaryop"];
    N32001227063208015115368010130015890055530882021083178 [label= "+", shape = circle];
    N19575591215368010130015890055530882021083178 [label= "Expression", numbered = 21];
    N41962596019575591215368010130015890055530882021083178 [label= "ConstExpression"];
    N42119052041962596019575591215368010130015890055530882021083178 [label= "2", shape = circle];
    N43527150230015890055530882021083178 [label= ")", shape = circle];
    N56200037155530882021083178 [label= "Binaryop"];
    N36038289056200037155530882021083178 [label= "/", shape = circle];
    N55909147255530882021083178 [label= "Expression", numbered = 41];
    N33420276055909147255530882021083178 [label= "ConstExpression"];
    N32347029033420276055909147255530882021083178 [label= "3", shape = circle];

    // Edges
    N30015890055530882021083178 -&gt; N1707556030015890055530882021083178
    N4094363015368010130015890055530882021083178 -&gt; N3684927404094363015368010130015890055530882021083178
    N15368010130015890055530882021083178 -&gt; N4094363015368010130015890055530882021083178
    N63208015115368010130015890055530882021083178 -&gt; N32001227063208015115368010130015890055530882021083178
    N15368010130015890055530882021083178 -&gt; N63208015115368010130015890055530882021083178
    N41962596019575591215368010130015890055530882021083178 -&gt; N42119052041962596019575591215368010130015890055530882021083178
    N19575591215368010130015890055530882021083178 -&gt; N41962596019575591215368010130015890055530882021083178
    N15368010130015890055530882021083178 -&gt; N19575591215368010130015890055530882021083178
    N30015890055530882021083178 -&gt; N15368010130015890055530882021083178
    N30015890055530882021083178 -&gt; N43527150230015890055530882021083178
    N55530882021083178 -&gt; N30015890055530882021083178
    N56200037155530882021083178 -&gt; N36038289056200037155530882021083178
    N55530882021083178 -&gt; N56200037155530882021083178
    N33420276055909147255530882021083178 -&gt; N32347029033420276055909147255530882021083178
    N55909147255530882021083178 -&gt; N33420276055909147255530882021083178
    N55530882021083178 -&gt; N55909147255530882021083178
    N21083178 -&gt; N55530882021083178
}
</desc>
  <path d="M 75 46 L 187 46 A8,8 0 0 1 195 54 L 195 78 A8,8 0 0 1 187 86 L 75 86 A8,8 0 0 1 67 78 L 67 54 A8,8 0 0 1 75 46" fill="rgb(0,0,0)" stroke="rgb(0,0,0)" style="filter:url(#filter_blur);opacity:0.7;fill-opacity:1" />
  <path d="M 75 126 L 187 126 A8,8 0 0 1 195 134 L 195 158 A8,8 0 0 1 187 166 L 75 166 A8,8 0 0 1 67 158 L 67 134 A8,8 0 0 1 75 126" fill="rgb(0,0,0)" stroke="rgb(0,0,0)" style="filter:url(#filter_blur);opacity:0.7;fill-opacity:1" />
  <path d="M 75 206 L 187 206 A8,8 0 0 1 195 214 L 195 238 A8,8 0 0 1 187 246 L 75 246 A8,8 0 0 1 67 238 L 67 214 A8,8 0 0 1 75 206" fill="rgb(0,0,0)" stroke="rgb(0,0,0)" style="filter:url(#filter_blur);opacity:0.7;fill-opacity:1" />
  <path d="M 843 206 L 955 206 A8,8 0 0 1 963 214 L 963 238 A8,8 0 0 1 955 246 L 843 246 A8,8 0 0 1 835 238 L 835 214 A8,8 0 0 1 843 206" fill="rgb(0,0,0)" stroke="rgb(0,0,0)" style="filter:url(#filter_blur);opacity:0.7;fill-opacity:1" />
  <path d="M 1035 206 L 1147 206 A8,8 0 0 1 1155 214 L 1155 238 A8,8 0 0 1 1147 246 L 1035 246 A8,8 0 0 1 1027 238 L 1027 214 A8,8 0 0 1 1035 206" fill="rgb(0,0,0)" stroke="rgb(0,0,0)" style="filter:url(#filter_blur);opacity:0.7;fill-opacity:1" />
  <ellipse cx="131" cy="306" fill="rgb(0,0,0)" rx="24" ry="24" stroke="rgb(0,0,0)" style="filter:url(#filter_blur);opacity:0.7;fill-opacity:1" />
  <path d="M 267 286 L 379 286 A8,8 0 0 1 387 294 L 387 318 A8,8 0 0 1 379 326 L 267 326 A8,8 0 0 1 259 318 L 259 294 A8,8 0 0 1 267 286" fill="rgb(0,0,0)" stroke="rgb(0,0,0)" style="filter:url(#filter_blur);opacity:0.7;fill-opacity:1" />
  <ellipse cx="515" cy="306" fill="rgb(0,0,0)" rx="24" ry="24" stroke="rgb(0,0,0)" style="filter:url(#filter_blur);opacity:0.7;fill-opacity:1" />
  <path d="M 267 366 L 379 366 A8,8 0 0 1 387 374 L 387 398 A8,8 0 0 1 379 406 L 267 406 A8,8 0 0 1 259 398 L 259 374 A8,8 0 0 1 267 366" fill="rgb(0,0,0)" stroke="rgb(0,0,0)" style="filter:url(#filter_blur);opacity:0.7;fill-opacity:1" />
  <path d="M 459 366 L 571 366 A8,8 0 0 1 579 374 L 579 398 A8,8 0 0 1 571 406 L 459 406 A8,8 0 0 1 451 398 L 451 374 A8,8 0 0 1 459 366" fill="rgb(0,0,0)" stroke="rgb(0,0,0)" style="filter:url(#filter_blur);opacity:0.7;fill-opacity:1" />
  <path d="M 651 366 L 763 366 A8,8 0 0 1 771 374 L 771 398 A8,8 0 0 1 763 406 L 651 406 A8,8 0 0 1 643 398 L 643 374 A8,8 0 0 1 651 366" fill="rgb(0,0,0)" stroke="rgb(0,0,0)" style="filter:url(#filter_blur);opacity:0.7;fill-opacity:1" />
  <ellipse cx="323" cy="466" fill="rgb(0,0,0)" rx="24" ry="24" stroke="rgb(0,0,0)" style="filter:url(#filter_blur);opacity:0.7;fill-opacity:1" />
  <ellipse cx="515" cy="466" fill="rgb(0,0,0)" rx="24" ry="24" stroke="rgb(0,0,0)" style="filter:url(#filter_blur);opacity:0.7;fill-opacity:1" />
  <path d="M 651 446 L 763 446 A8,8 0 0 1 771 454 L 771 478 A8,8 0 0 1 763 486 L 651 486 A8,8 0 0 1 643 478 L 643 454 A8,8 0 0 1 651 446" fill="rgb(0,0,0)" stroke="rgb(0,0,0)" style="filter:url(#filter_blur);opacity:0.7;fill-opacity:1" />
  <ellipse cx="707" cy="546" fill="rgb(0,0,0)" rx="24" ry="24" stroke="rgb(0,0,0)" style="filter:url(#filter_blur);opacity:0.7;fill-opacity:1" />
  <ellipse cx="899" cy="306" fill="rgb(0,0,0)" rx="24" ry="24" stroke="rgb(0,0,0)" style="filter:url(#filter_blur);opacity:0.7;fill-opacity:1" />
  <path d="M 1035 286 L 1147 286 A8,8 0 0 1 1155 294 L 1155 318 A8,8 0 0 1 1147 326 L 1035 326 A8,8 0 0 1 1027 318 L 1027 294 A8,8 0 0 1 1035 286" fill="rgb(0,0,0)" stroke="rgb(0,0,0)" style="filter:url(#filter_blur);opacity:0.7;fill-opacity:1" />
  <ellipse cx="1091" cy="386" fill="rgb(0,0,0)" rx="24" ry="24" stroke="rgb(0,0,0)" style="filter:url(#filter_blur);opacity:0.7;fill-opacity:1" />
  <path d="M 72 40 L 184 40 A8,8 0 0 1 192 48 L 192 72 A8,8 0 0 1 184 80 L 72 80 A8,8 0 0 1 64 72 L 64 48 A8,8 0 0 1 72 40" fill="rgb(255,255,255)" stroke="rgb(0,0,0)" />
  <text fill="rgb(0,0,0)" font-family="sans-serif" font-size="11" font-style="normal" font-weight="normal" text-anchor="middle" textLength="108" x="128" y="66">TopLevelExpression</text>
  <path d="M 72 120 L 184 120 A8,8 0 0 1 192 128 L 192 152 A8,8 0 0 1 184 160 L 72 160 A8,8 0 0 1 64 152 L 64 128 A8,8 0 0 1 72 120" fill="rgb(255,255,255)" stroke="rgb(0,0,0)" />
  <text fill="rgb(0,0,0)" font-family="sans-serif" font-size="11" font-style="normal" font-weight="normal" text-anchor="middle" textLength="60" x="128" y="146">Expression</text>
  <ellipse cx="64" cy="120" fill="pink" rx="12" ry="12" stroke="rgb(0,0,0)" />
  <text fill="rgb(0,0,0)" font-family="sans-serif" font-size="11" font-style="normal" font-weight="normal" text-anchor="middle" textLength="6" x="64" y="125">0</text>
  <path d="M 72 200 L 184 200 A8,8 0 0 1 192 208 L 192 232 A8,8 0 0 1 184 240 L 72 240 A8,8 0 0 1 64 232 L 64 208 A8,8 0 0 1 72 200" fill="rgb(255,255,255)" stroke="rgb(0,0,0)" />
  <text fill="rgb(0,0,0)" font-family="sans-serif" font-size="11" font-style="normal" font-weight="normal" text-anchor="middle" textLength="90" x="128" y="226">ParenExpression</text>
  <path d="M 840 200 L 952 200 A8,8 0 0 1 960 208 L 960 232 A8,8 0 0 1 952 240 L 840 240 A8,8 0 0 1 832 232 L 832 208 A8,8 0 0 1 840 200" fill="rgb(255,255,255)" stroke="rgb(0,0,0)" />
  <text fill="rgb(0,0,0)" font-family="sans-serif" font-size="11" font-style="normal" font-weight="normal" text-anchor="middle" textLength="48" x="896" y="226">Binaryop</text>
  <path d="M 1032 200 L 1144 200 A8,8 0 0 1 1152 208 L 1152 232 A8,8 0 0 1 1144 240 L 1032 240 A8,8 0 0 1 1024 232 L 1024 208 A8,8 0 0 1 1032 200" fill="rgb(255,255,255)" stroke="rgb(0,0,0)" />
  <text fill="rgb(0,0,0)" font-family="sans-serif" font-size="11" font-style="normal" font-weight="normal" text-anchor="middle" textLength="60" x="1088" y="226">Expression</text>
  <ellipse cx="1024" cy="200" fill="pink" rx="12" ry="12" stroke="rgb(0,0,0)" />
  <text fill="rgb(0,0,0)" font-family="sans-serif" font-size="11" font-style="normal" font-weight="normal" text-anchor="middle" textLength="12" x="1024" y="205">41</text>
  <ellipse cx="128" cy="300" fill="rgb(255,255,255)" rx="24" ry="24" stroke="rgb(0,0,0)" />
  <text fill="rgb(0,0,0)" font-family="sans-serif" font-size="11" font-style="normal" font-weight="normal" text-anchor="middle" textLength="6" x="128" y="306">(</text>
  <path d="M 264 280 L 376 280 A8,8 0 0 1 384 288 L 384 312 A8,8 0 0 1 376 320 L 264 320 A8,8 0 0 1 256 312 L 256 288 A8,8 0 0 1 264 280" fill="rgb(255,255,255)" stroke="rgb(0,0,0)" />
  <text fill="rgb(0,0,0)" font-family="sans-serif" font-size="11" font-style="normal" font-weight="normal" text-anchor="middle" textLength="60" x="320" y="306">Expression</text>
  <ellipse cx="256" cy="280" fill="pink" rx="12" ry="12" stroke="rgb(0,0,0)" />
  <text fill="rgb(0,0,0)" font-family="sans-serif" font-size="11" font-style="normal" font-weight="normal" text-anchor="middle" textLength="6" x="256" y="285">0</text>
  <ellipse cx="512" cy="300" fill="rgb(255,255,255)" rx="24" ry="24" stroke="rgb(0,0,0)" />
  <text fill="rgb(0,0,0)" font-family="sans-serif" font-size="11" font-style="normal" font-weight="normal" text-anchor="middle" textLength="6" x="512" y="306">)</text>
  <path d="M 264 360 L 376 360 A8,8 0 0 1 384 368 L 384 392 A8,8 0 0 1 376 400 L 264 400 A8,8 0 0 1 256 392 L 256 368 A8,8 0 0 1 264 360" fill="rgb(255,255,255)" stroke="rgb(0,0,0)" />
  <text fill="rgb(0,0,0)" font-family="sans-serif" font-size="11" font-style="normal" font-weight="normal" text-anchor="middle" textLength="90" x="320" y="386">ConstExpression</text>
  <path d="M 456 360 L 568 360 A8,8 0 0 1 576 368 L 576 392 A8,8 0 0 1 568 400 L 456 400 A8,8 0 0 1 448 392 L 448 368 A8,8 0 0 1 456 360" fill="rgb(255,255,255)" stroke="rgb(0,0,0)" />
  <text fill="rgb(0,0,0)" font-family="sans-serif" font-size="11" font-style="normal" font-weight="normal" text-anchor="middle" textLength="48" x="512" y="386">Binaryop</text>
  <path d="M 648 360 L 760 360 A8,8 0 0 1 768 368 L 768 392 A8,8 0 0 1 760 400 L 648 400 A8,8 0 0 1 640 392 L 640 368 A8,8 0 0 1 648 360" fill="rgb(255,255,255)" stroke="rgb(0,0,0)" />
  <text fill="rgb(0,0,0)" font-family="sans-serif" font-size="11" font-style="normal" font-weight="normal" text-anchor="middle" textLength="60" x="704" y="386">Expression</text>
  <ellipse cx="640" cy="360" fill="pink" rx="12" ry="12" stroke="rgb(0,0,0)" />
  <text fill="rgb(0,0,0)" font-family="sans-serif" font-size="11" font-style="normal" font-weight="normal" text-anchor="middle" textLength="12" x="640" y="365">21</text>
  <ellipse cx="320" cy="460" fill="rgb(255,255,255)" rx="24" ry="24" stroke="rgb(0,0,0)" />
  <text fill="rgb(0,0,0)" font-family="sans-serif" font-size="11" font-style="normal" font-weight="normal" text-anchor="middle" textLength="6" x="320" y="465">1</text>
  <ellipse cx="512" cy="460" fill="rgb(255,255,255)" rx="24" ry="24" stroke="rgb(0,0,0)" />
  <text fill="rgb(0,0,0)" font-family="sans-serif" font-size="11" font-style="normal" font-weight="normal" text-anchor="middle" textLength="6" x="512" y="465">+</text>
  <path d="M 648 440 L 760 440 A8,8 0 0 1 768 448 L 768 472 A8,8 0 0 1 760 480 L 648 480 A8,8 0 0 1 640 472 L 640 448 A8,8 0 0 1 648 440" fill="rgb(255,255,255)" stroke="rgb(0,0,0)" />
  <text fill="rgb(0,0,0)" font-family="sans-serif" font-size="11" font-style="normal" font-weight="normal" text-anchor="middle" textLength="90" x="704" y="466">ConstExpression</text>
  <ellipse cx="704" cy="540" fill="rgb(255,255,255)" rx="24" ry="24" stroke="rgb(0,0,0)" />
  <text fill="rgb(0,0,0)" font-family="sans-serif" font-size="11" font-style="normal" font-weight="normal" text-anchor="middle" textLength="6" x="704" y="545">2</text>
  <ellipse cx="896" cy="300" fill="rgb(255,255,255)" rx="24" ry="24" stroke="rgb(0,0,0)" />
  <text fill="rgb(0,0,0)" font-family="sans-serif" font-size="11" font-style="normal" font-weight="normal" text-anchor="middle" textLength="6" x="896" y="306">/</text>
  <path d="M 1032 280 L 1144 280 A8,8 0 0 1 1152 288 L 1152 312 A8,8 0 0 1 1144 320 L 1032 320 A8,8 0 0 1 1024 312 L 1024 288 A8,8 0 0 1 1032 280" fill="rgb(255,255,255)" stroke="rgb(0,0,0)" />
  <text fill="rgb(0,0,0)" font-family="sans-serif" font-size="11" font-style="normal" font-weight="normal" text-anchor="middle" textLength="90" x="1088" y="306">ConstExpression</text>
  <ellipse cx="1088" cy="380" fill="rgb(255,255,255)" rx="24" ry="24" stroke="rgb(0,0,0)" />
  <text fill="rgb(0,0,0)" font-family="sans-serif" font-size="11" font-style="normal" font-weight="normal" text-anchor="middle" textLength="6" x="1088" y="385">3</text>
  <path d="M 128 80 L 128 112" fill="none" stroke="rgb(0,0,0)" />
  <polygon fill="rgb(0,0,0)" points="128,119 124,112 132,112 128,119" stroke="rgb(0,0,0)" />
  <path d="M 128 160 L 128 180" fill="none" stroke="rgb(0,0,0)" />
  <path d="M 128 180 L 896 180" fill="none" stroke="rgb(0,0,0)" />
  <path d="M 896 180 L 896 192" fill="none" stroke="rgb(0,0,0)" />
  <polygon fill="rgb(0,0,0)" points="896,199 892,192 900,192 896,199" stroke="rgb(0,0,0)" />
  <path d="M 128 160 L 128 180" fill="none" stroke="rgb(0,0,0)" />
  <path d="M 128 180 L 1088 180" fill="none" stroke="rgb(0,0,0)" />
  <path d="M 1088 180 L 1088 192" fill="none" stroke="rgb(0,0,0)" />
  <polygon fill="rgb(0,0,0)" points="1088,199 1084,192 1092,192 1088,199" stroke="rgb(0,0,0)" />
  <path d="M 128 160 L 128 192" fill="none" stroke="rgb(0,0,0)" />
  <polygon fill="rgb(0,0,0)" points="128,199 124,192 132,192 128,199" stroke="rgb(0,0,0)" />
  <path d="M 128 240 L 128 260" fill="none" stroke="rgb(0,0,0)" />
  <path d="M 128 260 L 512 260" fill="none" stroke="rgb(0,0,0)" />
  <path d="M 512 260 L 512 268" fill="none" stroke="rgb(0,0,0)" />
  <polygon fill="rgb(0,0,0)" points="512,275 508,268 516,268 512,275" stroke="rgb(0,0,0)" />
  <path d="M 128 240 L 128 268" fill="none" stroke="rgb(0,0,0)" />
  <polygon fill="rgb(0,0,0)" points="128,275 124,268 132,268 128,275" stroke="rgb(0,0,0)" />
  <path d="M 128 240 L 128 260" fill="none" stroke="rgb(0,0,0)" />
  <path d="M 128 260 L 320 260" fill="none" stroke="rgb(0,0,0)" />
  <path d="M 320 260 L 320 272" fill="none" stroke="rgb(0,0,0)" />
  <polygon fill="rgb(0,0,0)" points="320,279 316,272 324,272 320,279" stroke="rgb(0,0,0)" />
  <path d="M 320 320 L 320 340" fill="none" stroke="rgb(0,0,0)" />
  <path d="M 320 340 L 704 340" fill="none" stroke="rgb(0,0,0)" />
  <path d="M 704 340 L 704 352" fill="none" stroke="rgb(0,0,0)" />
  <polygon fill="rgb(0,0,0)" points="704,359 700,352 708,352 704,359" stroke="rgb(0,0,0)" />
  <path d="M 320 320 L 320 352" fill="none" stroke="rgb(0,0,0)" />
  <polygon fill="rgb(0,0,0)" points="320,359 316,352 324,352 320,359" stroke="rgb(0,0,0)" />
  <path d="M 320 320 L 320 340" fill="none" stroke="rgb(0,0,0)" />
  <path d="M 320 340 L 512 340" fill="none" stroke="rgb(0,0,0)" />
  <path d="M 512 340 L 512 352" fill="none" stroke="rgb(0,0,0)" />
  <polygon fill="rgb(0,0,0)" points="512,359 508,352 516,352 512,359" stroke="rgb(0,0,0)" />
  <path d="M 320 400 L 320 428" fill="none" stroke="rgb(0,0,0)" />
  <polygon fill="rgb(0,0,0)" points="320,435 316,428 324,428 320,435" stroke="rgb(0,0,0)" />
  <path d="M 512 400 L 512 428" fill="none" stroke="rgb(0,0,0)" />
  <polygon fill="rgb(0,0,0)" points="512,435 508,428 516,428 512,435" stroke="rgb(0,0,0)" />
  <path d="M 704 400 L 704 432" fill="none" stroke="rgb(0,0,0)" />
  <polygon fill="rgb(0,0,0)" points="704,439 700,432 708,432 704,439" stroke="rgb(0,0,0)" />
  <path d="M 704 480 L 704 508" fill="none" stroke="rgb(0,0,0)" />
  <polygon fill="rgb(0,0,0)" points="704,515 700,508 708,508 704,515" stroke="rgb(0,0,0)" />
  <path d="M 896 240 L 896 268" fill="none" stroke="rgb(0,0,0)" />
  <polygon fill="rgb(0,0,0)" points="896,275 892,268 900,268 896,275" stroke="rgb(0,0,0)" />
  <path d="M 1088 240 L 1088 272" fill="none" stroke="rgb(0,0,0)" />
  <polygon fill="rgb(0,0,0)" points="1088,279 1084,272 1092,272 1088,279" stroke="rgb(0,0,0)" />
  <path d="M 1088 320 L 1088 348" fill="none" stroke="rgb(0,0,0)" />
  <polygon fill="rgb(0,0,0)" points="1088,355 1084,348 1092,348 1088,355" stroke="rgb(0,0,0)" />
</svg>
