<?xml version='1.0' encoding='UTF-8'?>
<!DOCTYPE svg PUBLIC "-//W3C//DTD SVG 1.0//EN" "http://www.w3.org/TR/2001/REC-SVG-20010904/DTD/svg10.dtd">
<svg viewBox="0 0 3904 680" xmlns="http://www.w3.org/2000/svg" xmlns:inkspace="http://www.inkscape.org/namespaces/inkscape" xmlns:xlink="http://www.w3.org/1999/xlink">
  <defs id="defs_block">
    <filter height="1.504" id="filter_blur" inkspace:collect="always" width="1.1575" x="-0.07875" y="-0.252">
      <feGaussianBlur id="feGaussianBlur3780" inkspace:collect="always" stdDeviation="4.2" />
    </filter>
  </defs>
  <title>blockdiag</title>
  <desc>blockdiag
{
    default_shape = roundedbox
    orientation = portrait

    // Nodes
    N21421675 [label= "FunctionDefinition"];
    N58577354021421675 [label= "def", shape = circle];
    N57434139121421675 [label= "FunctionPrototype"];
    N47145209057434139121421675 [label= "printstar", shape = circle];
    N21653700157434139121421675 [label= "(", shape = circle];
    N60665573257434139121421675 [label= "n", shape = circle];
    N9119245357434139121421675 [label= ")", shape = circle];
    N14964341221421675 [label= "Expression", numbered = 0];
    N461342014964341221421675 [label= "ForExpression"];
    N41520810461342014964341221421675 [label= "for", shape = circle];
    N373687361461342014964341221421675 [label= "Initializer"];
    N7743060373687361461342014964341221421675 [label= "i", shape = circle];
    N69687621373687361461342014964341221421675 [label= "=", shape = circle];
    N627188642373687361461342014964341221421675 [label= "Expression", numbered = 0];
    N275988690627188642373687361461342014964341221421675 [label= "ConstExpression"];
    N470632340275988690627188642373687361461342014964341221421675 [label= "1", shape = circle];
    N209159292461342014964341221421675 [label= ",", shape = circle];
    N540256333461342014964341221421675 [label= "Expression", numbered = 0];
    N164686520540256333461342014964341221421675 [label= "VariableExpression"];
    N140001480164686520540256333461342014964341221421675 [label= "i", shape = circle];
    N588924731540256333461342014964341221421675 [label= "Binaryop"];
    N602702120588924731540256333461342014964341221421675 [label= "&lt;", shape = circle];
    N55609982540256333461342014964341221421675 [label= "Expression", numbered = 11];
    N50048984055609982540256333461342014964341221421675 [label= "VariableExpression"];
    N47787675050048984055609982540256333461342014964341221421675 [label= "n", shape = circle];
    N274358974461342014964341221421675 [label= ",", shape = circle];
    N455964815461342014964341221421675 [label= "Expression", numbered = 0];
    N77151500455964815461342014964341221421675 [label= "ConstExpression"];
    N2327487077151500455964815461342014964341221421675 [label= "1.0", shape = circle];
    N209473916461342014964341221421675 [label= "in", shape = circle];
    N543087987461342014964341221421675 [label= "Expression", numbered = 0];
    N190171420543087987461342014964341221421675 [label= "FunctionCallExpression"];
    N369365500190171420543087987461342014964341221421675 [label= "putchard", shape = circle];
    N639934961190171420543087987461342014964341221421675 [label= "(", shape = circle];
    N390705582190171420543087987461342014964341221421675 [label= "Expression", numbered = 0];
    N160907030390705582190171420543087987461342014964341221421675 [label= "ConstExpression"];
    N105986060160907030390705582190171420543087987461342014964341221421675 [label= "42", shape = circle];
    N282785953190171420543087987461342014964341221421675 [label= ")", shape = circle];

    // Edges
    N21421675 -&gt; N58577354021421675
    N57434139121421675 -&gt; N47145209057434139121421675
    N57434139121421675 -&gt; N21653700157434139121421675
    N57434139121421675 -&gt; N60665573257434139121421675
    N57434139121421675 -&gt; N9119245357434139121421675
    N21421675 -&gt; N57434139121421675
    N461342014964341221421675 -&gt; N41520810461342014964341221421675
    N373687361461342014964341221421675 -&gt; N7743060373687361461342014964341221421675
    N373687361461342014964341221421675 -&gt; N69687621373687361461342014964341221421675
    N275988690627188642373687361461342014964341221421675 -&gt; N470632340275988690627188642373687361461342014964341221421675
    N627188642373687361461342014964341221421675 -&gt; N275988690627188642373687361461342014964341221421675
    N373687361461342014964341221421675 -&gt; N627188642373687361461342014964341221421675
    N461342014964341221421675 -&gt; N373687361461342014964341221421675
    N461342014964341221421675 -&gt; N209159292461342014964341221421675
    N164686520540256333461342014964341221421675 -&gt; N140001480164686520540256333461342014964341221421675
    N540256333461342014964341221421675 -&gt; N164686520540256333461342014964341221421675
    N588924731540256333461342014964341221421675 -&gt; N602702120588924731540256333461342014964341221421675
    N540256333461342014964341221421675 -&gt; N588924731540256333461342014964341221421675
    N50048984055609982540256333461342014964341221421675 -&gt; N47787675050048984055609982540256333461342014964341221421675
    N55609982540256333461342014964341221421675 -&gt; N50048984055609982540256333461342014964341221421675
    N540256333461342014964341221421675 -&gt; N55609982540256333461342014964341221421675
    N461342014964341221421675 -&gt; N540256333461342014964341221421675
    N461342014964341221421675 -&gt; N274358974461342014964341221421675
    N77151500455964815461342014964341221421675 -&gt; N2327487077151500455964815461342014964341221421675
    N455964815461342014964341221421675 -&gt; N77151500455964815461342014964341221421675
    N461342014964341221421675 -&gt; N455964815461342014964341221421675
    N461342014964341221421675 -&gt; N209473916461342014964341221421675
    N190171420543087987461342014964341221421675 -&gt; N369365500190171420543087987461342014964341221421675
    N190171420543087987461342014964341221421675 -&gt; N639934961190171420543087987461342014964341221421675
    N160907030390705582190171420543087987461342014964341221421675 -&gt; N105986060160907030390705582190171420543087987461342014964341221421675
    N390705582190171420543087987461342014964341221421675 -&gt; N160907030390705582190171420543087987461342014964341221421675
    N190171420543087987461342014964341221421675 -&gt; N390705582190171420543087987461342014964341221421675
    N190171420543087987461342014964341221421675 -&gt; N282785953190171420543087987461342014964341221421675
    N543087987461342014964341221421675 -&gt; N190171420543087987461342014964341221421675
    N461342014964341221421675 -&gt; N543087987461342014964341221421675
    N14964341221421675 -&gt; N461342014964341221421675
    N21421675 -&gt; N14964341221421675
}
</desc>
  <path d="M 75 46 L 187 46 A8,8 0 0 1 195 54 L 195 78 A8,8 0 0 1 187 86 L 75 86 A8,8 0 0 1 67 78 L 67 54 A8,8 0 0 1 75 46" fill="rgb(0,0,0)" stroke="rgb(0,0,0)" style="filter:url(#filter_blur);opacity:0.7;fill-opacity:1" />
  <ellipse cx="131" cy="146" fill="rgb(0,0,0)" rx="24" ry="24" stroke="rgb(0,0,0)" style="filter:url(#filter_blur);opacity:0.7;fill-opacity:1" />
  <path d="M 267 126 L 379 126 A8,8 0 0 1 387 134 L 387 158 A8,8 0 0 1 379 166 L 267 166 A8,8 0 0 1 259 158 L 259 134 A8,8 0 0 1 267 126" fill="rgb(0,0,0)" stroke="rgb(0,0,0)" style="filter:url(#filter_blur);opacity:0.7;fill-opacity:1" />
  <path d="M 1035 126 L 1147 126 A8,8 0 0 1 1155 134 L 1155 158 A8,8 0 0 1 1147 166 L 1035 166 A8,8 0 0 1 1027 158 L 1027 134 A8,8 0 0 1 1035 126" fill="rgb(0,0,0)" stroke="rgb(0,0,0)" style="filter:url(#filter_blur);opacity:0.7;fill-opacity:1" />
  <ellipse cx="323" cy="226" fill="rgb(0,0,0)" rx="24" ry="24" stroke="rgb(0,0,0)" style="filter:url(#filter_blur);opacity:0.7;fill-opacity:1" />
  <ellipse cx="515" cy="226" fill="rgb(0,0,0)" rx="24" ry="24" stroke="rgb(0,0,0)" style="filter:url(#filter_blur);opacity:0.7;fill-opacity:1" />
  <ellipse cx="707" cy="226" fill="rgb(0,0,0)" rx="24" ry="24" stroke="rgb(0,0,0)" style="filter:url(#filter_blur);opacity:0.7;fill-opacity:1" />
  <ellipse cx="899" cy="226" fill="rgb(0,0,0)" rx="24" ry="24" stroke="rgb(0,0,0)" style="filter:url(#filter_blur);opacity:0.7;fill-opacity:1" />
  <path d="M 1035 206 L 1147 206 A8,8 0 0 1 1155 214 L 1155 238 A8,8 0 0 1 1147 246 L 1035 246 A8,8 0 0 1 1027 238 L 1027 214 A8,8 0 0 1 1035 206" fill="rgb(0,0,0)" stroke="rgb(0,0,0)" style="filter:url(#filter_blur);opacity:0.7;fill-opacity:1" />
  <ellipse cx="1091" cy="306" fill="rgb(0,0,0)" rx="24" ry="24" stroke="rgb(0,0,0)" style="filter:url(#filter_blur);opacity:0.7;fill-opacity:1" />
  <path d="M 1227 286 L 1339 286 A8,8 0 0 1 1347 294 L 1347 318 A8,8 0 0 1 1339 326 L 1227 326 A8,8 0 0 1 1219 318 L 1219 294 A8,8 0 0 1 1227 286" fill="rgb(0,0,0)" stroke="rgb(0,0,0)" style="filter:url(#filter_blur);opacity:0.7;fill-opacity:1" />
  <ellipse cx="1859" cy="306" fill="rgb(0,0,0)" rx="24" ry="24" stroke="rgb(0,0,0)" style="filter:url(#filter_blur);opacity:0.7;fill-opacity:1" />
  <path d="M 1995 286 L 2107 286 A8,8 0 0 1 2115 294 L 2115 318 A8,8 0 0 1 2107 326 L 1995 326 A8,8 0 0 1 1987 318 L 1987 294 A8,8 0 0 1 1995 286" fill="rgb(0,0,0)" stroke="rgb(0,0,0)" style="filter:url(#filter_blur);opacity:0.7;fill-opacity:1" />
  <ellipse cx="2627" cy="306" fill="rgb(0,0,0)" rx="24" ry="24" stroke="rgb(0,0,0)" style="filter:url(#filter_blur);opacity:0.7;fill-opacity:1" />
  <path d="M 2763 286 L 2875 286 A8,8 0 0 1 2883 294 L 2883 318 A8,8 0 0 1 2875 326 L 2763 326 A8,8 0 0 1 2755 318 L 2755 294 A8,8 0 0 1 2763 286" fill="rgb(0,0,0)" stroke="rgb(0,0,0)" style="filter:url(#filter_blur);opacity:0.7;fill-opacity:1" />
  <ellipse cx="3011" cy="306" fill="rgb(0,0,0)" rx="24" ry="24" stroke="rgb(0,0,0)" style="filter:url(#filter_blur);opacity:0.7;fill-opacity:1" />
  <path d="M 3147 286 L 3259 286 A8,8 0 0 1 3267 294 L 3267 318 A8,8 0 0 1 3259 326 L 3147 326 A8,8 0 0 1 3139 318 L 3139 294 A8,8 0 0 1 3147 286" fill="rgb(0,0,0)" stroke="rgb(0,0,0)" style="filter:url(#filter_blur);opacity:0.7;fill-opacity:1" />
  <ellipse cx="1283" cy="386" fill="rgb(0,0,0)" rx="24" ry="24" stroke="rgb(0,0,0)" style="filter:url(#filter_blur);opacity:0.7;fill-opacity:1" />
  <ellipse cx="1475" cy="386" fill="rgb(0,0,0)" rx="24" ry="24" stroke="rgb(0,0,0)" style="filter:url(#filter_blur);opacity:0.7;fill-opacity:1" />
  <path d="M 1611 366 L 1723 366 A8,8 0 0 1 1731 374 L 1731 398 A8,8 0 0 1 1723 406 L 1611 406 A8,8 0 0 1 1603 398 L 1603 374 A8,8 0 0 1 1611 366" fill="rgb(0,0,0)" stroke="rgb(0,0,0)" style="filter:url(#filter_blur);opacity:0.7;fill-opacity:1" />
  <path d="M 1611 446 L 1723 446 A8,8 0 0 1 1731 454 L 1731 478 A8,8 0 0 1 1723 486 L 1611 486 A8,8 0 0 1 1603 478 L 1603 454 A8,8 0 0 1 1611 446" fill="rgb(0,0,0)" stroke="rgb(0,0,0)" style="filter:url(#filter_blur);opacity:0.7;fill-opacity:1" />
  <ellipse cx="1667" cy="546" fill="rgb(0,0,0)" rx="24" ry="24" stroke="rgb(0,0,0)" style="filter:url(#filter_blur);opacity:0.7;fill-opacity:1" />
  <path d="M 1995 366 L 2107 366 A8,8 0 0 1 2115 374 L 2115 398 A8,8 0 0 1 2107 406 L 1995 406 A8,8 0 0 1 1987 398 L 1987 374 A8,8 0 0 1 1995 366" fill="rgb(0,0,0)" stroke="rgb(0,0,0)" style="filter:url(#filter_blur);opacity:0.7;fill-opacity:1" />
  <path d="M 2187 366 L 2299 366 A8,8 0 0 1 2307 374 L 2307 398 A8,8 0 0 1 2299 406 L 2187 406 A8,8 0 0 1 2179 398 L 2179 374 A8,8 0 0 1 2187 366" fill="rgb(0,0,0)" stroke="rgb(0,0,0)" style="filter:url(#filter_blur);opacity:0.7;fill-opacity:1" />
  <path d="M 2379 366 L 2491 366 A8,8 0 0 1 2499 374 L 2499 398 A8,8 0 0 1 2491 406 L 2379 406 A8,8 0 0 1 2371 398 L 2371 374 A8,8 0 0 1 2379 366" fill="rgb(0,0,0)" stroke="rgb(0,0,0)" style="filter:url(#filter_blur);opacity:0.7;fill-opacity:1" />
  <ellipse cx="2051" cy="466" fill="rgb(0,0,0)" rx="24" ry="24" stroke="rgb(0,0,0)" style="filter:url(#filter_blur);opacity:0.7;fill-opacity:1" />
  <ellipse cx="2243" cy="466" fill="rgb(0,0,0)" rx="24" ry="24" stroke="rgb(0,0,0)" style="filter:url(#filter_blur);opacity:0.7;fill-opacity:1" />
  <path d="M 2379 446 L 2491 446 A8,8 0 0 1 2499 454 L 2499 478 A8,8 0 0 1 2491 486 L 2379 486 A8,8 0 0 1 2371 478 L 2371 454 A8,8 0 0 1 2379 446" fill="rgb(0,0,0)" stroke="rgb(0,0,0)" style="filter:url(#filter_blur);opacity:0.7;fill-opacity:1" />
  <ellipse cx="2435" cy="546" fill="rgb(0,0,0)" rx="24" ry="24" stroke="rgb(0,0,0)" style="filter:url(#filter_blur);opacity:0.7;fill-opacity:1" />
  <path d="M 2763 366 L 2875 366 A8,8 0 0 1 2883 374 L 2883 398 A8,8 0 0 1 2875 406 L 2763 406 A8,8 0 0 1 2755 398 L 2755 374 A8,8 0 0 1 2763 366" fill="rgb(0,0,0)" stroke="rgb(0,0,0)" style="filter:url(#filter_blur);opacity:0.7;fill-opacity:1" />
  <ellipse cx="2819" cy="466" fill="rgb(0,0,0)" rx="24" ry="24" stroke="rgb(0,0,0)" style="filter:url(#filter_blur);opacity:0.7;fill-opacity:1" />
  <path d="M 3147 366 L 3259 366 A8,8 0 0 1 3267 374 L 3267 398 A8,8 0 0 1 3259 406 L 3147 406 A8,8 0 0 1 3139 398 L 3139 374 A8,8 0 0 1 3147 366" fill="rgb(0,0,0)" stroke="rgb(0,0,0)" style="filter:url(#filter_blur);opacity:0.7;fill-opacity:1" />
  <ellipse cx="3203" cy="466" fill="rgb(0,0,0)" rx="24" ry="24" stroke="rgb(0,0,0)" style="filter:url(#filter_blur);opacity:0.7;fill-opacity:1" />
  <ellipse cx="3395" cy="466" fill="rgb(0,0,0)" rx="24" ry="24" stroke="rgb(0,0,0)" style="filter:url(#filter_blur);opacity:0.7;fill-opacity:1" />
  <path d="M 3531 446 L 3643 446 A8,8 0 0 1 3651 454 L 3651 478 A8,8 0 0 1 3643 486 L 3531 486 A8,8 0 0 1 3523 478 L 3523 454 A8,8 0 0 1 3531 446" fill="rgb(0,0,0)" stroke="rgb(0,0,0)" style="filter:url(#filter_blur);opacity:0.7;fill-opacity:1" />
  <ellipse cx="3779" cy="466" fill="rgb(0,0,0)" rx="24" ry="24" stroke="rgb(0,0,0)" style="filter:url(#filter_blur);opacity:0.7;fill-opacity:1" />
  <path d="M 3531 526 L 3643 526 A8,8 0 0 1 3651 534 L 3651 558 A8,8 0 0 1 3643 566 L 3531 566 A8,8 0 0 1 3523 558 L 3523 534 A8,8 0 0 1 3531 526" fill="rgb(0,0,0)" stroke="rgb(0,0,0)" style="filter:url(#filter_blur);opacity:0.7;fill-opacity:1" />
  <ellipse cx="3587" cy="626" fill="rgb(0,0,0)" rx="24" ry="24" stroke="rgb(0,0,0)" style="filter:url(#filter_blur);opacity:0.7;fill-opacity:1" />
  <path d="M 72 40 L 184 40 A8,8 0 0 1 192 48 L 192 72 A8,8 0 0 1 184 80 L 72 80 A8,8 0 0 1 64 72 L 64 48 A8,8 0 0 1 72 40" fill="rgb(255,255,255)" stroke="rgb(0,0,0)" />
  <text fill="rgb(0,0,0)" font-family="sans-serif" font-size="11" font-style="normal" font-weight="normal" text-anchor="middle" textLength="108" x="128" y="65">FunctionDefinition</text>
  <ellipse cx="128" cy="140" fill="rgb(255,255,255)" rx="24" ry="24" stroke="rgb(0,0,0)" />
  <text fill="rgb(0,0,0)" font-family="sans-serif" font-size="11" font-style="normal" font-weight="normal" text-anchor="middle" textLength="18" x="128" y="145">def</text>
  <path d="M 264 120 L 376 120 A8,8 0 0 1 384 128 L 384 152 A8,8 0 0 1 376 160 L 264 160 A8,8 0 0 1 256 152 L 256 128 A8,8 0 0 1 264 120" fill="rgb(255,255,255)" stroke="rgb(0,0,0)" />
  <text fill="rgb(0,0,0)" font-family="sans-serif" font-size="11" font-style="normal" font-weight="normal" text-anchor="middle" textLength="102" x="320" y="146">FunctionPrototype</text>
  <path d="M 1032 120 L 1144 120 A8,8 0 0 1 1152 128 L 1152 152 A8,8 0 0 1 1144 160 L 1032 160 A8,8 0 0 1 1024 152 L 1024 128 A8,8 0 0 1 1032 120" fill="rgb(255,255,255)" stroke="rgb(0,0,0)" />
  <text fill="rgb(0,0,0)" font-family="sans-serif" font-size="11" font-style="normal" font-weight="normal" text-anchor="middle" textLength="60" x="1088" y="146">Expression</text>
  <ellipse cx="1024" cy="120" fill="pink" rx="12" ry="12" stroke="rgb(0,0,0)" />
  <text fill="rgb(0,0,0)" font-family="sans-serif" font-size="11" font-style="normal" font-weight="normal" text-anchor="middle" textLength="6" x="1024" y="125">0</text>
  <ellipse cx="320" cy="220" fill="rgb(255,255,255)" rx="24" ry="24" stroke="rgb(0,0,0)" />
  <text fill="rgb(0,0,0)" font-family="sans-serif" font-size="11" font-style="normal" font-weight="normal" text-anchor="middle" textLength="48" x="320" y="220">printsta</text>
  <text fill="rgb(0,0,0)" font-family="sans-serif" font-size="11" font-style="normal" font-weight="normal" text-anchor="middle" textLength="6" x="320" y="232">r</text>
  <ellipse cx="512" cy="220" fill="rgb(255,255,255)" rx="24" ry="24" stroke="rgb(0,0,0)" />
  <text fill="rgb(0,0,0)" font-family="sans-serif" font-size="11" font-style="normal" font-weight="normal" text-anchor="middle" textLength="6" x="512" y="226">(</text>
  <ellipse cx="704" cy="220" fill="rgb(255,255,255)" rx="24" ry="24" stroke="rgb(0,0,0)" />
  <text fill="rgb(0,0,0)" font-family="sans-serif" font-size="11" font-style="normal" font-weight="normal" text-anchor="middle" textLength="6" x="704" y="225">n</text>
  <ellipse cx="896" cy="220" fill="rgb(255,255,255)" rx="24" ry="24" stroke="rgb(0,0,0)" />
  <text fill="rgb(0,0,0)" font-family="sans-serif" font-size="11" font-style="normal" font-weight="normal" text-anchor="middle" textLength="6" x="896" y="226">)</text>
  <path d="M 1032 200 L 1144 200 A8,8 0 0 1 1152 208 L 1152 232 A8,8 0 0 1 1144 240 L 1032 240 A8,8 0 0 1 1024 232 L 1024 208 A8,8 0 0 1 1032 200" fill="rgb(255,255,255)" stroke="rgb(0,0,0)" />
  <text fill="rgb(0,0,0)" font-family="sans-serif" font-size="11" font-style="normal" font-weight="normal" text-anchor="middle" textLength="78" x="1088" y="226">ForExpression</text>
  <ellipse cx="1088" cy="300" fill="rgb(255,255,255)" rx="24" ry="24" stroke="rgb(0,0,0)" />
  <text fill="rgb(0,0,0)" font-family="sans-serif" font-size="11" font-style="normal" font-weight="normal" text-anchor="middle" textLength="18" x="1088" y="305">for</text>
  <path d="M 1224 280 L 1336 280 A8,8 0 0 1 1344 288 L 1344 312 A8,8 0 0 1 1336 320 L 1224 320 A8,8 0 0 1 1216 312 L 1216 288 A8,8 0 0 1 1224 280" fill="rgb(255,255,255)" stroke="rgb(0,0,0)" />
  <text fill="rgb(0,0,0)" font-family="sans-serif" font-size="11" font-style="normal" font-weight="normal" text-anchor="middle" textLength="66" x="1280" y="305">Initializer</text>
  <ellipse cx="1856" cy="300" fill="rgb(255,255,255)" rx="24" ry="24" stroke="rgb(0,0,0)" />
  <text fill="rgb(0,0,0)" font-family="sans-serif" font-size="11" font-style="normal" font-weight="normal" text-anchor="middle" textLength="6" x="1856" y="306">,</text>
  <path d="M 1992 280 L 2104 280 A8,8 0 0 1 2112 288 L 2112 312 A8,8 0 0 1 2104 320 L 1992 320 A8,8 0 0 1 1984 312 L 1984 288 A8,8 0 0 1 1992 280" fill="rgb(255,255,255)" stroke="rgb(0,0,0)" />
  <text fill="rgb(0,0,0)" font-family="sans-serif" font-size="11" font-style="normal" font-weight="normal" text-anchor="middle" textLength="60" x="2048" y="306">Expression</text>
  <ellipse cx="1984" cy="280" fill="pink" rx="12" ry="12" stroke="rgb(0,0,0)" />
  <text fill="rgb(0,0,0)" font-family="sans-serif" font-size="11" font-style="normal" font-weight="normal" text-anchor="middle" textLength="6" x="1984" y="285">0</text>
  <ellipse cx="2624" cy="300" fill="rgb(255,255,255)" rx="24" ry="24" stroke="rgb(0,0,0)" />
  <text fill="rgb(0,0,0)" font-family="sans-serif" font-size="11" font-style="normal" font-weight="normal" text-anchor="middle" textLength="6" x="2624" y="306">,</text>
  <path d="M 2760 280 L 2872 280 A8,8 0 0 1 2880 288 L 2880 312 A8,8 0 0 1 2872 320 L 2760 320 A8,8 0 0 1 2752 312 L 2752 288 A8,8 0 0 1 2760 280" fill="rgb(255,255,255)" stroke="rgb(0,0,0)" />
  <text fill="rgb(0,0,0)" font-family="sans-serif" font-size="11" font-style="normal" font-weight="normal" text-anchor="middle" textLength="60" x="2816" y="306">Expression</text>
  <ellipse cx="2752" cy="280" fill="pink" rx="12" ry="12" stroke="rgb(0,0,0)" />
  <text fill="rgb(0,0,0)" font-family="sans-serif" font-size="11" font-style="normal" font-weight="normal" text-anchor="middle" textLength="6" x="2752" y="285">0</text>
  <ellipse cx="3008" cy="300" fill="rgb(255,255,255)" rx="24" ry="24" stroke="rgb(0,0,0)" />
  <text fill="rgb(0,0,0)" font-family="sans-serif" font-size="11" font-style="normal" font-weight="normal" text-anchor="middle" textLength="12" x="3008" y="305">in</text>
  <path d="M 3144 280 L 3256 280 A8,8 0 0 1 3264 288 L 3264 312 A8,8 0 0 1 3256 320 L 3144 320 A8,8 0 0 1 3136 312 L 3136 288 A8,8 0 0 1 3144 280" fill="rgb(255,255,255)" stroke="rgb(0,0,0)" />
  <text fill="rgb(0,0,0)" font-family="sans-serif" font-size="11" font-style="normal" font-weight="normal" text-anchor="middle" textLength="60" x="3200" y="306">Expression</text>
  <ellipse cx="3136" cy="280" fill="pink" rx="12" ry="12" stroke="rgb(0,0,0)" />
  <text fill="rgb(0,0,0)" font-family="sans-serif" font-size="11" font-style="normal" font-weight="normal" text-anchor="middle" textLength="6" x="3136" y="285">0</text>
  <ellipse cx="1280" cy="380" fill="rgb(255,255,255)" rx="24" ry="24" stroke="rgb(0,0,0)" />
  <text fill="rgb(0,0,0)" font-family="sans-serif" font-size="11" font-style="normal" font-weight="normal" text-anchor="middle" textLength="6" x="1280" y="385">i</text>
  <ellipse cx="1472" cy="380" fill="rgb(255,255,255)" rx="24" ry="24" stroke="rgb(0,0,0)" />
  <text fill="rgb(0,0,0)" font-family="sans-serif" font-size="11" font-style="normal" font-weight="normal" text-anchor="middle" textLength="6" x="1472" y="385">=</text>
  <path d="M 1608 360 L 1720 360 A8,8 0 0 1 1728 368 L 1728 392 A8,8 0 0 1 1720 400 L 1608 400 A8,8 0 0 1 1600 392 L 1600 368 A8,8 0 0 1 1608 360" fill="rgb(255,255,255)" stroke="rgb(0,0,0)" />
  <text fill="rgb(0,0,0)" font-family="sans-serif" font-size="11" font-style="normal" font-weight="normal" text-anchor="middle" textLength="60" x="1664" y="386">Expression</text>
  <ellipse cx="1600" cy="360" fill="pink" rx="12" ry="12" stroke="rgb(0,0,0)" />
  <text fill="rgb(0,0,0)" font-family="sans-serif" font-size="11" font-style="normal" font-weight="normal" text-anchor="middle" textLength="6" x="1600" y="365">0</text>
  <path d="M 1608 440 L 1720 440 A8,8 0 0 1 1728 448 L 1728 472 A8,8 0 0 1 1720 480 L 1608 480 A8,8 0 0 1 1600 472 L 1600 448 A8,8 0 0 1 1608 440" fill="rgb(255,255,255)" stroke="rgb(0,0,0)" />
  <text fill="rgb(0,0,0)" font-family="sans-serif" font-size="11" font-style="normal" font-weight="normal" text-anchor="middle" textLength="90" x="1664" y="466">ConstExpression</text>
  <ellipse cx="1664" cy="540" fill="rgb(255,255,255)" rx="24" ry="24" stroke="rgb(0,0,0)" />
  <text fill="rgb(0,0,0)" font-family="sans-serif" font-size="11" font-style="normal" font-weight="normal" text-anchor="middle" textLength="6" x="1664" y="545">1</text>
  <path d="M 1992 360 L 2104 360 A8,8 0 0 1 2112 368 L 2112 392 A8,8 0 0 1 2104 400 L 1992 400 A8,8 0 0 1 1984 392 L 1984 368 A8,8 0 0 1 1992 360" fill="rgb(255,255,255)" stroke="rgb(0,0,0)" />
  <text fill="rgb(0,0,0)" font-family="sans-serif" font-size="11" font-style="normal" font-weight="normal" text-anchor="middle" textLength="108" x="2048" y="386">VariableExpression</text>
  <path d="M 2184 360 L 2296 360 A8,8 0 0 1 2304 368 L 2304 392 A8,8 0 0 1 2296 400 L 2184 400 A8,8 0 0 1 2176 392 L 2176 368 A8,8 0 0 1 2184 360" fill="rgb(255,255,255)" stroke="rgb(0,0,0)" />
  <text fill="rgb(0,0,0)" font-family="sans-serif" font-size="11" font-style="normal" font-weight="normal" text-anchor="middle" textLength="48" x="2240" y="386">Binaryop</text>
  <path d="M 2376 360 L 2488 360 A8,8 0 0 1 2496 368 L 2496 392 A8,8 0 0 1 2488 400 L 2376 400 A8,8 0 0 1 2368 392 L 2368 368 A8,8 0 0 1 2376 360" fill="rgb(255,255,255)" stroke="rgb(0,0,0)" />
  <text fill="rgb(0,0,0)" font-family="sans-serif" font-size="11" font-style="normal" font-weight="normal" text-anchor="middle" textLength="60" x="2432" y="386">Expression</text>
  <ellipse cx="2368" cy="360" fill="pink" rx="12" ry="12" stroke="rgb(0,0,0)" />
  <text fill="rgb(0,0,0)" font-family="sans-serif" font-size="11" font-style="normal" font-weight="normal" text-anchor="middle" textLength="12" x="2368" y="365">11</text>
  <ellipse cx="2048" cy="460" fill="rgb(255,255,255)" rx="24" ry="24" stroke="rgb(0,0,0)" />
  <text fill="rgb(0,0,0)" font-family="sans-serif" font-size="11" font-style="normal" font-weight="normal" text-anchor="middle" textLength="6" x="2048" y="465">i</text>
  <ellipse cx="2240" cy="460" fill="rgb(255,255,255)" rx="24" ry="24" stroke="rgb(0,0,0)" />
  <text fill="rgb(0,0,0)" font-family="sans-serif" font-size="11" font-style="normal" font-weight="normal" text-anchor="middle" textLength="6" x="2240" y="465">&lt;</text>
  <path d="M 2376 440 L 2488 440 A8,8 0 0 1 2496 448 L 2496 472 A8,8 0 0 1 2488 480 L 2376 480 A8,8 0 0 1 2368 472 L 2368 448 A8,8 0 0 1 2376 440" fill="rgb(255,255,255)" stroke="rgb(0,0,0)" />
  <text fill="rgb(0,0,0)" font-family="sans-serif" font-size="11" font-style="normal" font-weight="normal" text-anchor="middle" textLength="108" x="2432" y="466">VariableExpression</text>
  <ellipse cx="2432" cy="540" fill="rgb(255,255,255)" rx="24" ry="24" stroke="rgb(0,0,0)" />
  <text fill="rgb(0,0,0)" font-family="sans-serif" font-size="11" font-style="normal" font-weight="normal" text-anchor="middle" textLength="6" x="2432" y="545">n</text>
  <path d="M 2760 360 L 2872 360 A8,8 0 0 1 2880 368 L 2880 392 A8,8 0 0 1 2872 400 L 2760 400 A8,8 0 0 1 2752 392 L 2752 368 A8,8 0 0 1 2760 360" fill="rgb(255,255,255)" stroke="rgb(0,0,0)" />
  <text fill="rgb(0,0,0)" font-family="sans-serif" font-size="11" font-style="normal" font-weight="normal" text-anchor="middle" textLength="90" x="2816" y="386">ConstExpression</text>
  <ellipse cx="2816" cy="460" fill="rgb(255,255,255)" rx="24" ry="24" stroke="rgb(0,0,0)" />
  <text fill="rgb(0,0,0)" font-family="sans-serif" font-size="11" font-style="normal" font-weight="normal" text-anchor="middle" textLength="18" x="2816" y="465">1.0</text>
  <path d="M 3144 360 L 3256 360 A8,8 0 0 1 3264 368 L 3264 392 A8,8 0 0 1 3256 400 L 3144 400 A8,8 0 0 1 3136 392 L 3136 368 A8,8 0 0 1 3144 360" fill="rgb(255,255,255)" stroke="rgb(0,0,0)" />
  <text fill="rgb(0,0,0)" font-family="sans-serif" font-size="11" font-style="normal" font-weight="normal" text-anchor="middle" textLength="126" x="3200" y="380">FunctionCallExpressio</text>
  <text fill="rgb(0,0,0)" font-family="sans-serif" font-size="11" font-style="normal" font-weight="normal" text-anchor="middle" textLength="6" x="3200" y="392">n</text>
  <ellipse cx="3200" cy="460" fill="rgb(255,255,255)" rx="24" ry="24" stroke="rgb(0,0,0)" />
  <text fill="rgb(0,0,0)" font-family="sans-serif" font-size="11" font-style="normal" font-weight="normal" text-anchor="middle" textLength="48" x="3200" y="466">putchard</text>
  <ellipse cx="3392" cy="460" fill="rgb(255,255,255)" rx="24" ry="24" stroke="rgb(0,0,0)" />
  <text fill="rgb(0,0,0)" font-family="sans-serif" font-size="11" font-style="normal" font-weight="normal" text-anchor="middle" textLength="6" x="3392" y="466">(</text>
  <path d="M 3528 440 L 3640 440 A8,8 0 0 1 3648 448 L 3648 472 A8,8 0 0 1 3640 480 L 3528 480 A8,8 0 0 1 3520 472 L 3520 448 A8,8 0 0 1 3528 440" fill="rgb(255,255,255)" stroke="rgb(0,0,0)" />
  <text fill="rgb(0,0,0)" font-family="sans-serif" font-size="11" font-style="normal" font-weight="normal" text-anchor="middle" textLength="60" x="3584" y="466">Expression</text>
  <ellipse cx="3520" cy="440" fill="pink" rx="12" ry="12" stroke="rgb(0,0,0)" />
  <text fill="rgb(0,0,0)" font-family="sans-serif" font-size="11" font-style="normal" font-weight="normal" text-anchor="middle" textLength="6" x="3520" y="445">0</text>
  <ellipse cx="3776" cy="460" fill="rgb(255,255,255)" rx="24" ry="24" stroke="rgb(0,0,0)" />
  <text fill="rgb(0,0,0)" font-family="sans-serif" font-size="11" font-style="normal" font-weight="normal" text-anchor="middle" textLength="6" x="3776" y="466">)</text>
  <path d="M 3528 520 L 3640 520 A8,8 0 0 1 3648 528 L 3648 552 A8,8 0 0 1 3640 560 L 3528 560 A8,8 0 0 1 3520 552 L 3520 528 A8,8 0 0 1 3528 520" fill="rgb(255,255,255)" stroke="rgb(0,0,0)" />
  <text fill="rgb(0,0,0)" font-family="sans-serif" font-size="11" font-style="normal" font-weight="normal" text-anchor="middle" textLength="90" x="3584" y="546">ConstExpression</text>
  <ellipse cx="3584" cy="620" fill="rgb(255,255,255)" rx="24" ry="24" stroke="rgb(0,0,0)" />
  <text fill="rgb(0,0,0)" font-family="sans-serif" font-size="11" font-style="normal" font-weight="normal" text-anchor="middle" textLength="12" x="3584" y="625">42</text>
  <path d="M 128 80 L 128 100" fill="none" stroke="rgb(0,0,0)" />
  <path d="M 128 100 L 320 100" fill="none" stroke="rgb(0,0,0)" />
  <path d="M 320 100 L 320 112" fill="none" stroke="rgb(0,0,0)" />
  <polygon fill="rgb(0,0,0)" points="320,119 316,112 324,112 320,119" stroke="rgb(0,0,0)" />
  <path d="M 128 80 L 128 108" fill="none" stroke="rgb(0,0,0)" />
  <polygon fill="rgb(0,0,0)" points="128,115 124,108 132,108 128,115" stroke="rgb(0,0,0)" />
  <path d="M 128 80 L 128 100" fill="none" stroke="rgb(0,0,0)" />
  <path d="M 128 100 L 1088 100" fill="none" stroke="rgb(0,0,0)" />
  <path d="M 1088 100 L 1088 112" fill="none" stroke="rgb(0,0,0)" />
  <polygon fill="rgb(0,0,0)" points="1088,119 1084,112 1092,112 1088,119" stroke="rgb(0,0,0)" />
  <path d="M 320 160 L 320 180" fill="none" stroke="rgb(0,0,0)" />
  <path d="M 320 180 L 704 180" fill="none" stroke="rgb(0,0,0)" />
  <path d="M 704 180 L 704 188" fill="none" stroke="rgb(0,0,0)" />
  <polygon fill="rgb(0,0,0)" points="704,195 700,188 708,188 704,195" stroke="rgb(0,0,0)" />
  <path d="M 320 160 L 320 180" fill="none" stroke="rgb(0,0,0)" />
  <path d="M 320 180 L 896 180" fill="none" stroke="rgb(0,0,0)" />
  <path d="M 896 180 L 896 188" fill="none" stroke="rgb(0,0,0)" />
  <polygon fill="rgb(0,0,0)" points="896,195 892,188 900,188 896,195" stroke="rgb(0,0,0)" />
  <path d="M 320 160 L 320 180" fill="none" stroke="rgb(0,0,0)" />
  <path d="M 320 180 L 512 180" fill="none" stroke="rgb(0,0,0)" />
  <path d="M 512 180 L 512 188" fill="none" stroke="rgb(0,0,0)" />
  <polygon fill="rgb(0,0,0)" points="512,195 508,188 516,188 512,195" stroke="rgb(0,0,0)" />
  <path d="M 320 160 L 320 188" fill="none" stroke="rgb(0,0,0)" />
  <polygon fill="rgb(0,0,0)" points="320,195 316,188 324,188 320,195" stroke="rgb(0,0,0)" />
  <path d="M 1088 160 L 1088 192" fill="none" stroke="rgb(0,0,0)" />
  <polygon fill="rgb(0,0,0)" points="1088,199 1084,192 1092,192 1088,199" stroke="rgb(0,0,0)" />
  <path d="M 1088 240 L 1088 260" fill="none" stroke="rgb(0,0,0)" />
  <path d="M 1088 260 L 2816 260" fill="none" stroke="rgb(0,0,0)" />
  <path d="M 2816 260 L 2816 272" fill="none" stroke="rgb(0,0,0)" />
  <polygon fill="rgb(0,0,0)" points="2816,279 2812,272 2820,272 2816,279" stroke="rgb(0,0,0)" />
  <path d="M 1088 240 L 1088 268" fill="none" stroke="rgb(0,0,0)" />
  <polygon fill="rgb(0,0,0)" points="1088,275 1084,268 1092,268 1088,275" stroke="rgb(0,0,0)" />
  <path d="M 1088 240 L 1088 260" fill="none" stroke="rgb(0,0,0)" />
  <path d="M 1088 260 L 3008 260" fill="none" stroke="rgb(0,0,0)" />
  <path d="M 3008 260 L 3008 268" fill="none" stroke="rgb(0,0,0)" />
  <polygon fill="rgb(0,0,0)" points="3008,275 3004,268 3012,268 3008,275" stroke="rgb(0,0,0)" />
  <path d="M 1088 240 L 1088 260" fill="none" stroke="rgb(0,0,0)" />
  <path d="M 1088 260 L 2048 260" fill="none" stroke="rgb(0,0,0)" />
  <path d="M 2048 260 L 2048 272" fill="none" stroke="rgb(0,0,0)" />
  <polygon fill="rgb(0,0,0)" points="2048,279 2044,272 2052,272 2048,279" stroke="rgb(0,0,0)" />
  <path d="M 1088 240 L 1088 260" fill="none" stroke="rgb(0,0,0)" />
  <path d="M 1088 260 L 1856 260" fill="none" stroke="rgb(0,0,0)" />
  <path d="M 1856 260 L 1856 268" fill="none" stroke="rgb(0,0,0)" />
  <polygon fill="rgb(0,0,0)" points="1856,275 1852,268 1860,268 1856,275" stroke="rgb(0,0,0)" />
  <path d="M 1088 240 L 1088 260" fill="none" stroke="rgb(0,0,0)" />
  <path d="M 1088 260 L 3200 260" fill="none" stroke="rgb(0,0,0)" />
  <path d="M 3200 260 L 3200 272" fill="none" stroke="rgb(0,0,0)" />
  <polygon fill="rgb(0,0,0)" points="3200,279 3196,272 3204,272 3200,279" stroke="rgb(0,0,0)" />
  <path d="M 1088 240 L 1088 260" fill="none" stroke="rgb(0,0,0)" />
  <path d="M 1088 260 L 1280 260" fill="none" stroke="rgb(0,0,0)" />
  <path d="M 1280 260 L 1280 272" fill="none" stroke="rgb(0,0,0)" />
  <polygon fill="rgb(0,0,0)" points="1280,279 1276,272 1284,272 1280,279" stroke="rgb(0,0,0)" />
  <path d="M 1088 240 L 1088 260" fill="none" stroke="rgb(0,0,0)" />
  <path d="M 1088 260 L 2624 260" fill="none" stroke="rgb(0,0,0)" />
  <path d="M 2624 260 L 2624 268" fill="none" stroke="rgb(0,0,0)" />
  <polygon fill="rgb(0,0,0)" points="2624,275 2620,268 2628,268 2624,275" stroke="rgb(0,0,0)" />
  <path d="M 1280 320 L 1280 340" fill="none" stroke="rgb(0,0,0)" />
  <path d="M 1280 340 L 1472 340" fill="none" stroke="rgb(0,0,0)" />
  <path d="M 1472 340 L 1472 348" fill="none" stroke="rgb(0,0,0)" />
  <polygon fill="rgb(0,0,0)" points="1472,355 1468,348 1476,348 1472,355" stroke="rgb(0,0,0)" />
  <path d="M 1280 320 L 1280 348" fill="none" stroke="rgb(0,0,0)" />
  <polygon fill="rgb(0,0,0)" points="1280,355 1276,348 1284,348 1280,355" stroke="rgb(0,0,0)" />
  <path d="M 1280 320 L 1280 340" fill="none" stroke="rgb(0,0,0)" />
  <path d="M 1280 340 L 1664 340" fill="none" stroke="rgb(0,0,0)" />
  <path d="M 1664 340 L 1664 352" fill="none" stroke="rgb(0,0,0)" />
  <polygon fill="rgb(0,0,0)" points="1664,359 1660,352 1668,352 1664,359" stroke="rgb(0,0,0)" />
  <path d="M 1664 400 L 1664 432" fill="none" stroke="rgb(0,0,0)" />
  <polygon fill="rgb(0,0,0)" points="1664,439 1660,432 1668,432 1664,439" stroke="rgb(0,0,0)" />
  <path d="M 1664 480 L 1664 508" fill="none" stroke="rgb(0,0,0)" />
  <polygon fill="rgb(0,0,0)" points="1664,515 1660,508 1668,508 1664,515" stroke="rgb(0,0,0)" />
  <path d="M 2048 320 L 2048 340" fill="none" stroke="rgb(0,0,0)" />
  <path d="M 2048 340 L 2432 340" fill="none" stroke="rgb(0,0,0)" />
  <path d="M 2432 340 L 2432 352" fill="none" stroke="rgb(0,0,0)" />
  <polygon fill="rgb(0,0,0)" points="2432,359 2428,352 2436,352 2432,359" stroke="rgb(0,0,0)" />
  <path d="M 2048 320 L 2048 352" fill="none" stroke="rgb(0,0,0)" />
  <polygon fill="rgb(0,0,0)" points="2048,359 2044,352 2052,352 2048,359" stroke="rgb(0,0,0)" />
  <path d="M 2048 320 L 2048 340" fill="none" stroke="rgb(0,0,0)" />
  <path d="M 2048 340 L 2240 340" fill="none" stroke="rgb(0,0,0)" />
  <path d="M 2240 340 L 2240 352" fill="none" stroke="rgb(0,0,0)" />
  <polygon fill="rgb(0,0,0)" points="2240,359 2236,352 2244,352 2240,359" stroke="rgb(0,0,0)" />
  <path d="M 2048 400 L 2048 428" fill="none" stroke="rgb(0,0,0)" />
  <polygon fill="rgb(0,0,0)" points="2048,435 2044,428 2052,428 2048,435" stroke="rgb(0,0,0)" />
  <path d="M 2240 400 L 2240 428" fill="none" stroke="rgb(0,0,0)" />
  <polygon fill="rgb(0,0,0)" points="2240,435 2236,428 2244,428 2240,435" stroke="rgb(0,0,0)" />
  <path d="M 2432 400 L 2432 432" fill="none" stroke="rgb(0,0,0)" />
  <polygon fill="rgb(0,0,0)" points="2432,439 2428,432 2436,432 2432,439" stroke="rgb(0,0,0)" />
  <path d="M 2432 480 L 2432 508" fill="none" stroke="rgb(0,0,0)" />
  <polygon fill="rgb(0,0,0)" points="2432,515 2428,508 2436,508 2432,515" stroke="rgb(0,0,0)" />
  <path d="M 2816 320 L 2816 352" fill="none" stroke="rgb(0,0,0)" />
  <polygon fill="rgb(0,0,0)" points="2816,359 2812,352 2820,352 2816,359" stroke="rgb(0,0,0)" />
  <path d="M 2816 400 L 2816 428" fill="none" stroke="rgb(0,0,0)" />
  <polygon fill="rgb(0,0,0)" points="2816,435 2812,428 2820,428 2816,435" stroke="rgb(0,0,0)" />
  <path d="M 3200 320 L 3200 352" fill="none" stroke="rgb(0,0,0)" />
  <polygon fill="rgb(0,0,0)" points="3200,359 3196,352 3204,352 3200,359" stroke="rgb(0,0,0)" />
  <path d="M 3200 400 L 3200 420" fill="none" stroke="rgb(0,0,0)" />
  <path d="M 3200 420 L 3392 420" fill="none" stroke="rgb(0,0,0)" />
  <path d="M 3392 420 L 3392 428" fill="none" stroke="rgb(0,0,0)" />
  <polygon fill="rgb(0,0,0)" points="3392,435 3388,428 3396,428 3392,435" stroke="rgb(0,0,0)" />
  <path d="M 3200 400 L 3200 420" fill="none" stroke="rgb(0,0,0)" />
  <path d="M 3200 420 L 3776 420" fill="none" stroke="rgb(0,0,0)" />
  <path d="M 3776 420 L 3776 428" fill="none" stroke="rgb(0,0,0)" />
  <polygon fill="rgb(0,0,0)" points="3776,435 3772,428 3780,428 3776,435" stroke="rgb(0,0,0)" />
  <path d="M 3200 400 L 3200 420" fill="none" stroke="rgb(0,0,0)" />
  <path d="M 3200 420 L 3584 420" fill="none" stroke="rgb(0,0,0)" />
  <path d="M 3584 420 L 3584 432" fill="none" stroke="rgb(0,0,0)" />
  <polygon fill="rgb(0,0,0)" points="3584,439 3580,432 3588,432 3584,439" stroke="rgb(0,0,0)" />
  <path d="M 3200 400 L 3200 428" fill="none" stroke="rgb(0,0,0)" />
  <polygon fill="rgb(0,0,0)" points="3200,435 3196,428 3204,428 3200,435" stroke="rgb(0,0,0)" />
  <path d="M 3584 480 L 3584 512" fill="none" stroke="rgb(0,0,0)" />
  <polygon fill="rgb(0,0,0)" points="3584,519 3580,512 3588,512 3584,519" stroke="rgb(0,0,0)" />
  <path d="M 3584 560 L 3584 588" fill="none" stroke="rgb(0,0,0)" />
  <polygon fill="rgb(0,0,0)" points="3584,595 3580,588 3588,588 3584,595" stroke="rgb(0,0,0)" />
</svg>
