<?xml version='1.0' encoding='UTF-8'?>
<!DOCTYPE svg PUBLIC "-//W3C//DTD SVG 1.0//EN" "http://www.w3.org/TR/2001/REC-SVG-20010904/DTD/svg10.dtd">
<svg viewBox="0 0 2176 600" xmlns="http://www.w3.org/2000/svg" xmlns:inkspace="http://www.inkscape.org/namespaces/inkscape" xmlns:xlink="http://www.w3.org/1999/xlink">
  <defs id="defs_block">
    <filter height="1.504" id="filter_blur" inkspace:collect="always" width="1.1575" x="-0.07875" y="-0.252">
      <feGaussianBlur id="feGaussianBlur3780" inkspace:collect="always" stdDeviation="4.2" />
    </filter>
  </defs>
  <title>blockdiag</title>
  <desc>blockdiag
{
    default_shape = roundedbox
    orientation = portrait

    // Nodes
    N21083178 [label= "TopLevelExpression"];
    N55530882021083178 [label= "Expression", numbered = 0];
    N30015890055530882021083178 [label= "ConstExpression"];
    N1707556030015890055530882021083178 [label= "1", shape = circle];
    N15368010155530882021083178 [label= "Binaryop"];
    N4094363015368010155530882021083178 [label= "Builtinop"];
    N3684927404094363015368010155530882021083178 [label= "+", shape = circle];
    N63208015255530882021083178 [label= "Expression", numbered = 21];
    N32001227063208015255530882021083178 [label= "ConstExpression"];
    N19575591032001227063208015255530882021083178 [label= "2", shape = circle];
    N41962596163208015255530882021083178 [label= "Binaryop"];
    N42119052041962596163208015255530882021083178 [label= "Builtinop"];
    N43527150042119052041962596163208015255530882021083178 [label= "*", shape = circle];
    N56200037263208015255530882021083178 [label= "Expression", numbered = 41];
    N36038289056200037263208015255530882021083178 [label= "ConstExpression"];
    N55909147036038289056200037263208015255530882021083178 [label= "3", shape = circle];
    N33420276355530882021083178 [label= "Binaryop"];
    N32347029033420276355530882021083178 [label= "Builtinop"];
    N22687807032347029033420276355530882021083178 [label= "-", shape = circle];
    N2863675455530882021083178 [label= "Expression", numbered = 21];
    N2577308302863675455530882021083178 [label= "ConstExpression"];
    N3063115902577308302863675455530882021083178 [label= "4", shape = circle];
    N724497512863675455530882021083178 [label= "Binaryop"];
    N652047820724497512863675455530882021083178 [label= "Builtinop"];
    N499721320652047820724497512863675455530882021083178 [label= "/", shape = circle];
    N4709601022863675455530882021083178 [label= "Expression", numbered = 41];
    N2121091404709601022863675455530882021083178 [label= "ConstExpression"];
    N5668049902121091404709601022863675455530882021083178 [label= "5", shape = circle];
    N4036244814709601022863675455530882021083178 [label= "Binaryop"];
    N2771771204036244814709601022863675455530882021083178 [label= "Builtinop"];
    N4813282202771771204036244814709601022863675455530882021083178 [label= "^", shape = circle];
    N3054221824709601022863675455530882021083178 [label= "Expression", numbered = 50];
    N644450903054221824709601022863675455530882021083178 [label= "ConstExpression"];
    N580005840644450903054221824709601022863675455530882021083178 [label= "6", shape = circle];

    // Edges
    N30015890055530882021083178 -&gt; N1707556030015890055530882021083178
    N55530882021083178 -&gt; N30015890055530882021083178
    N4094363015368010155530882021083178 -&gt; N3684927404094363015368010155530882021083178
    N15368010155530882021083178 -&gt; N4094363015368010155530882021083178
    N55530882021083178 -&gt; N15368010155530882021083178
    N32001227063208015255530882021083178 -&gt; N19575591032001227063208015255530882021083178
    N63208015255530882021083178 -&gt; N32001227063208015255530882021083178
    N42119052041962596163208015255530882021083178 -&gt; N43527150042119052041962596163208015255530882021083178
    N41962596163208015255530882021083178 -&gt; N42119052041962596163208015255530882021083178
    N63208015255530882021083178 -&gt; N41962596163208015255530882021083178
    N36038289056200037263208015255530882021083178 -&gt; N55909147036038289056200037263208015255530882021083178
    N56200037263208015255530882021083178 -&gt; N36038289056200037263208015255530882021083178
    N63208015255530882021083178 -&gt; N56200037263208015255530882021083178
    N55530882021083178 -&gt; N63208015255530882021083178
    N32347029033420276355530882021083178 -&gt; N22687807032347029033420276355530882021083178
    N33420276355530882021083178 -&gt; N32347029033420276355530882021083178
    N55530882021083178 -&gt; N33420276355530882021083178
    N2577308302863675455530882021083178 -&gt; N3063115902577308302863675455530882021083178
    N2863675455530882021083178 -&gt; N2577308302863675455530882021083178
    N652047820724497512863675455530882021083178 -&gt; N499721320652047820724497512863675455530882021083178
    N724497512863675455530882021083178 -&gt; N652047820724497512863675455530882021083178
    N2863675455530882021083178 -&gt; N724497512863675455530882021083178
    N2121091404709601022863675455530882021083178 -&gt; N5668049902121091404709601022863675455530882021083178
    N4709601022863675455530882021083178 -&gt; N2121091404709601022863675455530882021083178
    N2771771204036244814709601022863675455530882021083178 -&gt; N4813282202771771204036244814709601022863675455530882021083178
    N4036244814709601022863675455530882021083178 -&gt; N2771771204036244814709601022863675455530882021083178
    N4709601022863675455530882021083178 -&gt; N4036244814709601022863675455530882021083178
    N644450903054221824709601022863675455530882021083178 -&gt; N580005840644450903054221824709601022863675455530882021083178
    N3054221824709601022863675455530882021083178 -&gt; N644450903054221824709601022863675455530882021083178
    N4709601022863675455530882021083178 -&gt; N3054221824709601022863675455530882021083178
    N2863675455530882021083178 -&gt; N4709601022863675455530882021083178
    N55530882021083178 -&gt; N2863675455530882021083178
    N21083178 -&gt; N55530882021083178
}
</desc>
  <path d="M 75 46 L 187 46 A8,8 0 0 1 195 54 L 195 78 A8,8 0 0 1 187 86 L 75 86 A8,8 0 0 1 67 78 L 67 54 A8,8 0 0 1 75 46" fill="rgb(0,0,0)" stroke="rgb(0,0,0)" style="filter:url(#filter_blur);opacity:0.7;fill-opacity:1" />
  <path d="M 75 126 L 187 126 A8,8 0 0 1 195 134 L 195 158 A8,8 0 0 1 187 166 L 75 166 A8,8 0 0 1 67 158 L 67 134 A8,8 0 0 1 75 126" fill="rgb(0,0,0)" stroke="rgb(0,0,0)" style="filter:url(#filter_blur);opacity:0.7;fill-opacity:1" />
  <path d="M 75 206 L 187 206 A8,8 0 0 1 195 214 L 195 238 A8,8 0 0 1 187 246 L 75 246 A8,8 0 0 1 67 238 L 67 214 A8,8 0 0 1 75 206" fill="rgb(0,0,0)" stroke="rgb(0,0,0)" style="filter:url(#filter_blur);opacity:0.7;fill-opacity:1" />
  <path d="M 267 206 L 379 206 A8,8 0 0 1 387 214 L 387 238 A8,8 0 0 1 379 246 L 267 246 A8,8 0 0 1 259 238 L 259 214 A8,8 0 0 1 267 206" fill="rgb(0,0,0)" stroke="rgb(0,0,0)" style="filter:url(#filter_blur);opacity:0.7;fill-opacity:1" />
  <path d="M 459 206 L 571 206 A8,8 0 0 1 579 214 L 579 238 A8,8 0 0 1 571 246 L 459 246 A8,8 0 0 1 451 238 L 451 214 A8,8 0 0 1 459 206" fill="rgb(0,0,0)" stroke="rgb(0,0,0)" style="filter:url(#filter_blur);opacity:0.7;fill-opacity:1" />
  <path d="M 1035 206 L 1147 206 A8,8 0 0 1 1155 214 L 1155 238 A8,8 0 0 1 1147 246 L 1035 246 A8,8 0 0 1 1027 238 L 1027 214 A8,8 0 0 1 1035 206" fill="rgb(0,0,0)" stroke="rgb(0,0,0)" style="filter:url(#filter_blur);opacity:0.7;fill-opacity:1" />
  <path d="M 1227 206 L 1339 206 A8,8 0 0 1 1347 214 L 1347 238 A8,8 0 0 1 1339 246 L 1227 246 A8,8 0 0 1 1219 238 L 1219 214 A8,8 0 0 1 1227 206" fill="rgb(0,0,0)" stroke="rgb(0,0,0)" style="filter:url(#filter_blur);opacity:0.7;fill-opacity:1" />
  <ellipse cx="131" cy="306" fill="rgb(0,0,0)" rx="24" ry="24" stroke="rgb(0,0,0)" style="filter:url(#filter_blur);opacity:0.7;fill-opacity:1" />
  <path d="M 267 286 L 379 286 A8,8 0 0 1 387 294 L 387 318 A8,8 0 0 1 379 326 L 267 326 A8,8 0 0 1 259 318 L 259 294 A8,8 0 0 1 267 286" fill="rgb(0,0,0)" stroke="rgb(0,0,0)" style="filter:url(#filter_blur);opacity:0.7;fill-opacity:1" />
  <ellipse cx="323" cy="386" fill="rgb(0,0,0)" rx="24" ry="24" stroke="rgb(0,0,0)" style="filter:url(#filter_blur);opacity:0.7;fill-opacity:1" />
  <path d="M 459 286 L 571 286 A8,8 0 0 1 579 294 L 579 318 A8,8 0 0 1 571 326 L 459 326 A8,8 0 0 1 451 318 L 451 294 A8,8 0 0 1 459 286" fill="rgb(0,0,0)" stroke="rgb(0,0,0)" style="filter:url(#filter_blur);opacity:0.7;fill-opacity:1" />
  <path d="M 651 286 L 763 286 A8,8 0 0 1 771 294 L 771 318 A8,8 0 0 1 763 326 L 651 326 A8,8 0 0 1 643 318 L 643 294 A8,8 0 0 1 651 286" fill="rgb(0,0,0)" stroke="rgb(0,0,0)" style="filter:url(#filter_blur);opacity:0.7;fill-opacity:1" />
  <path d="M 843 286 L 955 286 A8,8 0 0 1 963 294 L 963 318 A8,8 0 0 1 955 326 L 843 326 A8,8 0 0 1 835 318 L 835 294 A8,8 0 0 1 843 286" fill="rgb(0,0,0)" stroke="rgb(0,0,0)" style="filter:url(#filter_blur);opacity:0.7;fill-opacity:1" />
  <ellipse cx="515" cy="386" fill="rgb(0,0,0)" rx="24" ry="24" stroke="rgb(0,0,0)" style="filter:url(#filter_blur);opacity:0.7;fill-opacity:1" />
  <path d="M 651 366 L 763 366 A8,8 0 0 1 771 374 L 771 398 A8,8 0 0 1 763 406 L 651 406 A8,8 0 0 1 643 398 L 643 374 A8,8 0 0 1 651 366" fill="rgb(0,0,0)" stroke="rgb(0,0,0)" style="filter:url(#filter_blur);opacity:0.7;fill-opacity:1" />
  <ellipse cx="707" cy="466" fill="rgb(0,0,0)" rx="24" ry="24" stroke="rgb(0,0,0)" style="filter:url(#filter_blur);opacity:0.7;fill-opacity:1" />
  <path d="M 843 366 L 955 366 A8,8 0 0 1 963 374 L 963 398 A8,8 0 0 1 955 406 L 843 406 A8,8 0 0 1 835 398 L 835 374 A8,8 0 0 1 843 366" fill="rgb(0,0,0)" stroke="rgb(0,0,0)" style="filter:url(#filter_blur);opacity:0.7;fill-opacity:1" />
  <ellipse cx="899" cy="466" fill="rgb(0,0,0)" rx="24" ry="24" stroke="rgb(0,0,0)" style="filter:url(#filter_blur);opacity:0.7;fill-opacity:1" />
  <path d="M 1035 286 L 1147 286 A8,8 0 0 1 1155 294 L 1155 318 A8,8 0 0 1 1147 326 L 1035 326 A8,8 0 0 1 1027 318 L 1027 294 A8,8 0 0 1 1035 286" fill="rgb(0,0,0)" stroke="rgb(0,0,0)" style="filter:url(#filter_blur);opacity:0.7;fill-opacity:1" />
  <ellipse cx="1091" cy="386" fill="rgb(0,0,0)" rx="24" ry="24" stroke="rgb(0,0,0)" style="filter:url(#filter_blur);opacity:0.7;fill-opacity:1" />
  <path d="M 1227 286 L 1339 286 A8,8 0 0 1 1347 294 L 1347 318 A8,8 0 0 1 1339 326 L 1227 326 A8,8 0 0 1 1219 318 L 1219 294 A8,8 0 0 1 1227 286" fill="rgb(0,0,0)" stroke="rgb(0,0,0)" style="filter:url(#filter_blur);opacity:0.7;fill-opacity:1" />
  <path d="M 1419 286 L 1531 286 A8,8 0 0 1 1539 294 L 1539 318 A8,8 0 0 1 1531 326 L 1419 326 A8,8 0 0 1 1411 318 L 1411 294 A8,8 0 0 1 1419 286" fill="rgb(0,0,0)" stroke="rgb(0,0,0)" style="filter:url(#filter_blur);opacity:0.7;fill-opacity:1" />
  <path d="M 1611 286 L 1723 286 A8,8 0 0 1 1731 294 L 1731 318 A8,8 0 0 1 1723 326 L 1611 326 A8,8 0 0 1 1603 318 L 1603 294 A8,8 0 0 1 1611 286" fill="rgb(0,0,0)" stroke="rgb(0,0,0)" style="filter:url(#filter_blur);opacity:0.7;fill-opacity:1" />
  <ellipse cx="1283" cy="386" fill="rgb(0,0,0)" rx="24" ry="24" stroke="rgb(0,0,0)" style="filter:url(#filter_blur);opacity:0.7;fill-opacity:1" />
  <path d="M 1419 366 L 1531 366 A8,8 0 0 1 1539 374 L 1539 398 A8,8 0 0 1 1531 406 L 1419 406 A8,8 0 0 1 1411 398 L 1411 374 A8,8 0 0 1 1419 366" fill="rgb(0,0,0)" stroke="rgb(0,0,0)" style="filter:url(#filter_blur);opacity:0.7;fill-opacity:1" />
  <ellipse cx="1475" cy="466" fill="rgb(0,0,0)" rx="24" ry="24" stroke="rgb(0,0,0)" style="filter:url(#filter_blur);opacity:0.7;fill-opacity:1" />
  <path d="M 1611 366 L 1723 366 A8,8 0 0 1 1731 374 L 1731 398 A8,8 0 0 1 1723 406 L 1611 406 A8,8 0 0 1 1603 398 L 1603 374 A8,8 0 0 1 1611 366" fill="rgb(0,0,0)" stroke="rgb(0,0,0)" style="filter:url(#filter_blur);opacity:0.7;fill-opacity:1" />
  <path d="M 1803 366 L 1915 366 A8,8 0 0 1 1923 374 L 1923 398 A8,8 0 0 1 1915 406 L 1803 406 A8,8 0 0 1 1795 398 L 1795 374 A8,8 0 0 1 1803 366" fill="rgb(0,0,0)" stroke="rgb(0,0,0)" style="filter:url(#filter_blur);opacity:0.7;fill-opacity:1" />
  <path d="M 1995 366 L 2107 366 A8,8 0 0 1 2115 374 L 2115 398 A8,8 0 0 1 2107 406 L 1995 406 A8,8 0 0 1 1987 398 L 1987 374 A8,8 0 0 1 1995 366" fill="rgb(0,0,0)" stroke="rgb(0,0,0)" style="filter:url(#filter_blur);opacity:0.7;fill-opacity:1" />
  <ellipse cx="1667" cy="466" fill="rgb(0,0,0)" rx="24" ry="24" stroke="rgb(0,0,0)" style="filter:url(#filter_blur);opacity:0.7;fill-opacity:1" />
  <path d="M 1803 446 L 1915 446 A8,8 0 0 1 1923 454 L 1923 478 A8,8 0 0 1 1915 486 L 1803 486 A8,8 0 0 1 1795 478 L 1795 454 A8,8 0 0 1 1803 446" fill="rgb(0,0,0)" stroke="rgb(0,0,0)" style="filter:url(#filter_blur);opacity:0.7;fill-opacity:1" />
  <ellipse cx="1859" cy="546" fill="rgb(0,0,0)" rx="24" ry="24" stroke="rgb(0,0,0)" style="filter:url(#filter_blur);opacity:0.7;fill-opacity:1" />
  <path d="M 1995 446 L 2107 446 A8,8 0 0 1 2115 454 L 2115 478 A8,8 0 0 1 2107 486 L 1995 486 A8,8 0 0 1 1987 478 L 1987 454 A8,8 0 0 1 1995 446" fill="rgb(0,0,0)" stroke="rgb(0,0,0)" style="filter:url(#filter_blur);opacity:0.7;fill-opacity:1" />
  <ellipse cx="2051" cy="546" fill="rgb(0,0,0)" rx="24" ry="24" stroke="rgb(0,0,0)" style="filter:url(#filter_blur);opacity:0.7;fill-opacity:1" />
  <path d="M 72 40 L 184 40 A8,8 0 0 1 192 48 L 192 72 A8,8 0 0 1 184 80 L 72 80 A8,8 0 0 1 64 72 L 64 48 A8,8 0 0 1 72 40" fill="rgb(255,255,255)" stroke="rgb(0,0,0)" />
  <text fill="rgb(0,0,0)" font-family="sans-serif" font-size="11" font-style="normal" font-weight="normal" text-anchor="middle" textLength="108" x="128" y="66">TopLevelExpression</text>
  <path d="M 72 120 L 184 120 A8,8 0 0 1 192 128 L 192 152 A8,8 0 0 1 184 160 L 72 160 A8,8 0 0 1 64 152 L 64 128 A8,8 0 0 1 72 120" fill="rgb(255,255,255)" stroke="rgb(0,0,0)" />
  <text fill="rgb(0,0,0)" font-family="sans-serif" font-size="11" font-style="normal" font-weight="normal" text-anchor="middle" textLength="60" x="128" y="146">Expression</text>
  <ellipse cx="64" cy="120" fill="pink" rx="12" ry="12" stroke="rgb(0,0,0)" />
  <text fill="rgb(0,0,0)" font-family="sans-serif" font-size="11" font-style="normal" font-weight="normal" text-anchor="middle" textLength="6" x="64" y="125">0</text>
  <path d="M 72 200 L 184 200 A8,8 0 0 1 192 208 L 192 232 A8,8 0 0 1 184 240 L 72 240 A8,8 0 0 1 64 232 L 64 208 A8,8 0 0 1 72 200" fill="rgb(255,255,255)" stroke="rgb(0,0,0)" />
  <text fill="rgb(0,0,0)" font-family="sans-serif" font-size="11" font-style="normal" font-weight="normal" text-anchor="middle" textLength="90" x="128" y="226">ConstExpression</text>
  <path d="M 264 200 L 376 200 A8,8 0 0 1 384 208 L 384 232 A8,8 0 0 1 376 240 L 264 240 A8,8 0 0 1 256 232 L 256 208 A8,8 0 0 1 264 200" fill="rgb(255,255,255)" stroke="rgb(0,0,0)" />
  <text fill="rgb(0,0,0)" font-family="sans-serif" font-size="11" font-style="normal" font-weight="normal" text-anchor="middle" textLength="48" x="320" y="226">Binaryop</text>
  <path d="M 456 200 L 568 200 A8,8 0 0 1 576 208 L 576 232 A8,8 0 0 1 568 240 L 456 240 A8,8 0 0 1 448 232 L 448 208 A8,8 0 0 1 456 200" fill="rgb(255,255,255)" stroke="rgb(0,0,0)" />
  <text fill="rgb(0,0,0)" font-family="sans-serif" font-size="11" font-style="normal" font-weight="normal" text-anchor="middle" textLength="60" x="512" y="226">Expression</text>
  <ellipse cx="448" cy="200" fill="pink" rx="12" ry="12" stroke="rgb(0,0,0)" />
  <text fill="rgb(0,0,0)" font-family="sans-serif" font-size="11" font-style="normal" font-weight="normal" text-anchor="middle" textLength="12" x="448" y="205">21</text>
  <path d="M 1032 200 L 1144 200 A8,8 0 0 1 1152 208 L 1152 232 A8,8 0 0 1 1144 240 L 1032 240 A8,8 0 0 1 1024 232 L 1024 208 A8,8 0 0 1 1032 200" fill="rgb(255,255,255)" stroke="rgb(0,0,0)" />
  <text fill="rgb(0,0,0)" font-family="sans-serif" font-size="11" font-style="normal" font-weight="normal" text-anchor="middle" textLength="48" x="1088" y="226">Binaryop</text>
  <path d="M 1224 200 L 1336 200 A8,8 0 0 1 1344 208 L 1344 232 A8,8 0 0 1 1336 240 L 1224 240 A8,8 0 0 1 1216 232 L 1216 208 A8,8 0 0 1 1224 200" fill="rgb(255,255,255)" stroke="rgb(0,0,0)" />
  <text fill="rgb(0,0,0)" font-family="sans-serif" font-size="11" font-style="normal" font-weight="normal" text-anchor="middle" textLength="60" x="1280" y="226">Expression</text>
  <ellipse cx="1216" cy="200" fill="pink" rx="12" ry="12" stroke="rgb(0,0,0)" />
  <text fill="rgb(0,0,0)" font-family="sans-serif" font-size="11" font-style="normal" font-weight="normal" text-anchor="middle" textLength="12" x="1216" y="205">21</text>
  <ellipse cx="128" cy="300" fill="rgb(255,255,255)" rx="24" ry="24" stroke="rgb(0,0,0)" />
  <text fill="rgb(0,0,0)" font-family="sans-serif" font-size="11" font-style="normal" font-weight="normal" text-anchor="middle" textLength="6" x="128" y="305">1</text>
  <path d="M 264 280 L 376 280 A8,8 0 0 1 384 288 L 384 312 A8,8 0 0 1 376 320 L 264 320 A8,8 0 0 1 256 312 L 256 288 A8,8 0 0 1 264 280" fill="rgb(255,255,255)" stroke="rgb(0,0,0)" />
  <text fill="rgb(0,0,0)" font-family="sans-serif" font-size="11" font-style="normal" font-weight="normal" text-anchor="middle" textLength="54" x="320" y="306">Builtinop</text>
  <ellipse cx="320" cy="380" fill="rgb(255,255,255)" rx="24" ry="24" stroke="rgb(0,0,0)" />
  <text fill="rgb(0,0,0)" font-family="sans-serif" font-size="11" font-style="normal" font-weight="normal" text-anchor="middle" textLength="6" x="320" y="385">+</text>
  <path d="M 456 280 L 568 280 A8,8 0 0 1 576 288 L 576 312 A8,8 0 0 1 568 320 L 456 320 A8,8 0 0 1 448 312 L 448 288 A8,8 0 0 1 456 280" fill="rgb(255,255,255)" stroke="rgb(0,0,0)" />
  <text fill="rgb(0,0,0)" font-family="sans-serif" font-size="11" font-style="normal" font-weight="normal" text-anchor="middle" textLength="90" x="512" y="306">ConstExpression</text>
  <path d="M 648 280 L 760 280 A8,8 0 0 1 768 288 L 768 312 A8,8 0 0 1 760 320 L 648 320 A8,8 0 0 1 640 312 L 640 288 A8,8 0 0 1 648 280" fill="rgb(255,255,255)" stroke="rgb(0,0,0)" />
  <text fill="rgb(0,0,0)" font-family="sans-serif" font-size="11" font-style="normal" font-weight="normal" text-anchor="middle" textLength="48" x="704" y="306">Binaryop</text>
  <path d="M 840 280 L 952 280 A8,8 0 0 1 960 288 L 960 312 A8,8 0 0 1 952 320 L 840 320 A8,8 0 0 1 832 312 L 832 288 A8,8 0 0 1 840 280" fill="rgb(255,255,255)" stroke="rgb(0,0,0)" />
  <text fill="rgb(0,0,0)" font-family="sans-serif" font-size="11" font-style="normal" font-weight="normal" text-anchor="middle" textLength="60" x="896" y="306">Expression</text>
  <ellipse cx="832" cy="280" fill="pink" rx="12" ry="12" stroke="rgb(0,0,0)" />
  <text fill="rgb(0,0,0)" font-family="sans-serif" font-size="11" font-style="normal" font-weight="normal" text-anchor="middle" textLength="12" x="832" y="285">41</text>
  <ellipse cx="512" cy="380" fill="rgb(255,255,255)" rx="24" ry="24" stroke="rgb(0,0,0)" />
  <text fill="rgb(0,0,0)" font-family="sans-serif" font-size="11" font-style="normal" font-weight="normal" text-anchor="middle" textLength="6" x="512" y="385">2</text>
  <path d="M 648 360 L 760 360 A8,8 0 0 1 768 368 L 768 392 A8,8 0 0 1 760 400 L 648 400 A8,8 0 0 1 640 392 L 640 368 A8,8 0 0 1 648 360" fill="rgb(255,255,255)" stroke="rgb(0,0,0)" />
  <text fill="rgb(0,0,0)" font-family="sans-serif" font-size="11" font-style="normal" font-weight="normal" text-anchor="middle" textLength="54" x="704" y="386">Builtinop</text>
  <ellipse cx="704" cy="460" fill="rgb(255,255,255)" rx="24" ry="24" stroke="rgb(0,0,0)" />
  <text fill="rgb(0,0,0)" font-family="sans-serif" font-size="11" font-style="normal" font-weight="normal" text-anchor="middle" textLength="6" x="704" y="465">*</text>
  <path d="M 840 360 L 952 360 A8,8 0 0 1 960 368 L 960 392 A8,8 0 0 1 952 400 L 840 400 A8,8 0 0 1 832 392 L 832 368 A8,8 0 0 1 840 360" fill="rgb(255,255,255)" stroke="rgb(0,0,0)" />
  <text fill="rgb(0,0,0)" font-family="sans-serif" font-size="11" font-style="normal" font-weight="normal" text-anchor="middle" textLength="90" x="896" y="386">ConstExpression</text>
  <ellipse cx="896" cy="460" fill="rgb(255,255,255)" rx="24" ry="24" stroke="rgb(0,0,0)" />
  <text fill="rgb(0,0,0)" font-family="sans-serif" font-size="11" font-style="normal" font-weight="normal" text-anchor="middle" textLength="6" x="896" y="465">3</text>
  <path d="M 1032 280 L 1144 280 A8,8 0 0 1 1152 288 L 1152 312 A8,8 0 0 1 1144 320 L 1032 320 A8,8 0 0 1 1024 312 L 1024 288 A8,8 0 0 1 1032 280" fill="rgb(255,255,255)" stroke="rgb(0,0,0)" />
  <text fill="rgb(0,0,0)" font-family="sans-serif" font-size="11" font-style="normal" font-weight="normal" text-anchor="middle" textLength="54" x="1088" y="306">Builtinop</text>
  <ellipse cx="1088" cy="380" fill="rgb(255,255,255)" rx="24" ry="24" stroke="rgb(0,0,0)" />
  <text fill="rgb(0,0,0)" font-family="sans-serif" font-size="11" font-style="normal" font-weight="normal" text-anchor="middle" textLength="6" x="1088" y="385">-</text>
  <path d="M 1224 280 L 1336 280 A8,8 0 0 1 1344 288 L 1344 312 A8,8 0 0 1 1336 320 L 1224 320 A8,8 0 0 1 1216 312 L 1216 288 A8,8 0 0 1 1224 280" fill="rgb(255,255,255)" stroke="rgb(0,0,0)" />
  <text fill="rgb(0,0,0)" font-family="sans-serif" font-size="11" font-style="normal" font-weight="normal" text-anchor="middle" textLength="90" x="1280" y="306">ConstExpression</text>
  <path d="M 1416 280 L 1528 280 A8,8 0 0 1 1536 288 L 1536 312 A8,8 0 0 1 1528 320 L 1416 320 A8,8 0 0 1 1408 312 L 1408 288 A8,8 0 0 1 1416 280" fill="rgb(255,255,255)" stroke="rgb(0,0,0)" />
  <text fill="rgb(0,0,0)" font-family="sans-serif" font-size="11" font-style="normal" font-weight="normal" text-anchor="middle" textLength="48" x="1472" y="306">Binaryop</text>
  <path d="M 1608 280 L 1720 280 A8,8 0 0 1 1728 288 L 1728 312 A8,8 0 0 1 1720 320 L 1608 320 A8,8 0 0 1 1600 312 L 1600 288 A8,8 0 0 1 1608 280" fill="rgb(255,255,255)" stroke="rgb(0,0,0)" />
  <text fill="rgb(0,0,0)" font-family="sans-serif" font-size="11" font-style="normal" font-weight="normal" text-anchor="middle" textLength="60" x="1664" y="306">Expression</text>
  <ellipse cx="1600" cy="280" fill="pink" rx="12" ry="12" stroke="rgb(0,0,0)" />
  <text fill="rgb(0,0,0)" font-family="sans-serif" font-size="11" font-style="normal" font-weight="normal" text-anchor="middle" textLength="12" x="1600" y="285">41</text>
  <ellipse cx="1280" cy="380" fill="rgb(255,255,255)" rx="24" ry="24" stroke="rgb(0,0,0)" />
  <text fill="rgb(0,0,0)" font-family="sans-serif" font-size="11" font-style="normal" font-weight="normal" text-anchor="middle" textLength="6" x="1280" y="385">4</text>
  <path d="M 1416 360 L 1528 360 A8,8 0 0 1 1536 368 L 1536 392 A8,8 0 0 1 1528 400 L 1416 400 A8,8 0 0 1 1408 392 L 1408 368 A8,8 0 0 1 1416 360" fill="rgb(255,255,255)" stroke="rgb(0,0,0)" />
  <text fill="rgb(0,0,0)" font-family="sans-serif" font-size="11" font-style="normal" font-weight="normal" text-anchor="middle" textLength="54" x="1472" y="386">Builtinop</text>
  <ellipse cx="1472" cy="460" fill="rgb(255,255,255)" rx="24" ry="24" stroke="rgb(0,0,0)" />
  <text fill="rgb(0,0,0)" font-family="sans-serif" font-size="11" font-style="normal" font-weight="normal" text-anchor="middle" textLength="6" x="1472" y="466">/</text>
  <path d="M 1608 360 L 1720 360 A8,8 0 0 1 1728 368 L 1728 392 A8,8 0 0 1 1720 400 L 1608 400 A8,8 0 0 1 1600 392 L 1600 368 A8,8 0 0 1 1608 360" fill="rgb(255,255,255)" stroke="rgb(0,0,0)" />
  <text fill="rgb(0,0,0)" font-family="sans-serif" font-size="11" font-style="normal" font-weight="normal" text-anchor="middle" textLength="90" x="1664" y="386">ConstExpression</text>
  <path d="M 1800 360 L 1912 360 A8,8 0 0 1 1920 368 L 1920 392 A8,8 0 0 1 1912 400 L 1800 400 A8,8 0 0 1 1792 392 L 1792 368 A8,8 0 0 1 1800 360" fill="rgb(255,255,255)" stroke="rgb(0,0,0)" />
  <text fill="rgb(0,0,0)" font-family="sans-serif" font-size="11" font-style="normal" font-weight="normal" text-anchor="middle" textLength="48" x="1856" y="386">Binaryop</text>
  <path d="M 1992 360 L 2104 360 A8,8 0 0 1 2112 368 L 2112 392 A8,8 0 0 1 2104 400 L 1992 400 A8,8 0 0 1 1984 392 L 1984 368 A8,8 0 0 1 1992 360" fill="rgb(255,255,255)" stroke="rgb(0,0,0)" />
  <text fill="rgb(0,0,0)" font-family="sans-serif" font-size="11" font-style="normal" font-weight="normal" text-anchor="middle" textLength="60" x="2048" y="386">Expression</text>
  <ellipse cx="1984" cy="360" fill="pink" rx="12" ry="12" stroke="rgb(0,0,0)" />
  <text fill="rgb(0,0,0)" font-family="sans-serif" font-size="11" font-style="normal" font-weight="normal" text-anchor="middle" textLength="12" x="1984" y="365">50</text>
  <ellipse cx="1664" cy="460" fill="rgb(255,255,255)" rx="24" ry="24" stroke="rgb(0,0,0)" />
  <text fill="rgb(0,0,0)" font-family="sans-serif" font-size="11" font-style="normal" font-weight="normal" text-anchor="middle" textLength="6" x="1664" y="465">5</text>
  <path d="M 1800 440 L 1912 440 A8,8 0 0 1 1920 448 L 1920 472 A8,8 0 0 1 1912 480 L 1800 480 A8,8 0 0 1 1792 472 L 1792 448 A8,8 0 0 1 1800 440" fill="rgb(255,255,255)" stroke="rgb(0,0,0)" />
  <text fill="rgb(0,0,0)" font-family="sans-serif" font-size="11" font-style="normal" font-weight="normal" text-anchor="middle" textLength="54" x="1856" y="466">Builtinop</text>
  <ellipse cx="1856" cy="540" fill="rgb(255,255,255)" rx="24" ry="24" stroke="rgb(0,0,0)" />
  <text fill="rgb(0,0,0)" font-family="sans-serif" font-size="11" font-style="normal" font-weight="normal" text-anchor="middle" textLength="6" x="1856" y="545">^</text>
  <path d="M 1992 440 L 2104 440 A8,8 0 0 1 2112 448 L 2112 472 A8,8 0 0 1 2104 480 L 1992 480 A8,8 0 0 1 1984 472 L 1984 448 A8,8 0 0 1 1992 440" fill="rgb(255,255,255)" stroke="rgb(0,0,0)" />
  <text fill="rgb(0,0,0)" font-family="sans-serif" font-size="11" font-style="normal" font-weight="normal" text-anchor="middle" textLength="90" x="2048" y="466">ConstExpression</text>
  <ellipse cx="2048" cy="540" fill="rgb(255,255,255)" rx="24" ry="24" stroke="rgb(0,0,0)" />
  <text fill="rgb(0,0,0)" font-family="sans-serif" font-size="11" font-style="normal" font-weight="normal" text-anchor="middle" textLength="6" x="2048" y="545">6</text>
  <path d="M 128 80 L 128 112" fill="none" stroke="rgb(0,0,0)" />
  <polygon fill="rgb(0,0,0)" points="128,119 124,112 132,112 128,119" stroke="rgb(0,0,0)" />
  <path d="M 128 160 L 128 180" fill="none" stroke="rgb(0,0,0)" />
  <path d="M 128 180 L 320 180" fill="none" stroke="rgb(0,0,0)" />
  <path d="M 320 180 L 320 192" fill="none" stroke="rgb(0,0,0)" />
  <polygon fill="rgb(0,0,0)" points="320,199 316,192 324,192 320,199" stroke="rgb(0,0,0)" />
  <path d="M 128 160 L 128 192" fill="none" stroke="rgb(0,0,0)" />
  <polygon fill="rgb(0,0,0)" points="128,199 124,192 132,192 128,199" stroke="rgb(0,0,0)" />
  <path d="M 128 160 L 128 180" fill="none" stroke="rgb(0,0,0)" />
  <path d="M 128 180 L 1088 180" fill="none" stroke="rgb(0,0,0)" />
  <path d="M 1088 180 L 1088 192" fill="none" stroke="rgb(0,0,0)" />
  <polygon fill="rgb(0,0,0)" points="1088,199 1084,192 1092,192 1088,199" stroke="rgb(0,0,0)" />
  <path d="M 128 160 L 128 180" fill="none" stroke="rgb(0,0,0)" />
  <path d="M 128 180 L 1280 180" fill="none" stroke="rgb(0,0,0)" />
  <path d="M 1280 180 L 1280 192" fill="none" stroke="rgb(0,0,0)" />
  <polygon fill="rgb(0,0,0)" points="1280,199 1276,192 1284,192 1280,199" stroke="rgb(0,0,0)" />
  <path d="M 128 160 L 128 180" fill="none" stroke="rgb(0,0,0)" />
  <path d="M 128 180 L 512 180" fill="none" stroke="rgb(0,0,0)" />
  <path d="M 512 180 L 512 192" fill="none" stroke="rgb(0,0,0)" />
  <polygon fill="rgb(0,0,0)" points="512,199 508,192 516,192 512,199" stroke="rgb(0,0,0)" />
  <path d="M 128 240 L 128 268" fill="none" stroke="rgb(0,0,0)" />
  <polygon fill="rgb(0,0,0)" points="128,275 124,268 132,268 128,275" stroke="rgb(0,0,0)" />
  <path d="M 320 240 L 320 272" fill="none" stroke="rgb(0,0,0)" />
  <polygon fill="rgb(0,0,0)" points="320,279 316,272 324,272 320,279" stroke="rgb(0,0,0)" />
  <path d="M 320 320 L 320 348" fill="none" stroke="rgb(0,0,0)" />
  <polygon fill="rgb(0,0,0)" points="320,355 316,348 324,348 320,355" stroke="rgb(0,0,0)" />
  <path d="M 512 240 L 512 260" fill="none" stroke="rgb(0,0,0)" />
  <path d="M 512 260 L 704 260" fill="none" stroke="rgb(0,0,0)" />
  <path d="M 704 260 L 704 272" fill="none" stroke="rgb(0,0,0)" />
  <polygon fill="rgb(0,0,0)" points="704,279 700,272 708,272 704,279" stroke="rgb(0,0,0)" />
  <path d="M 512 240 L 512 260" fill="none" stroke="rgb(0,0,0)" />
  <path d="M 512 260 L 896 260" fill="none" stroke="rgb(0,0,0)" />
  <path d="M 896 260 L 896 272" fill="none" stroke="rgb(0,0,0)" />
  <polygon fill="rgb(0,0,0)" points="896,279 892,272 900,272 896,279" stroke="rgb(0,0,0)" />
  <path d="M 512 240 L 512 272" fill="none" stroke="rgb(0,0,0)" />
  <polygon fill="rgb(0,0,0)" points="512,279 508,272 516,272 512,279" stroke="rgb(0,0,0)" />
  <path d="M 512 320 L 512 348" fill="none" stroke="rgb(0,0,0)" />
  <polygon fill="rgb(0,0,0)" points="512,355 508,348 516,348 512,355" stroke="rgb(0,0,0)" />
  <path d="M 704 320 L 704 352" fill="none" stroke="rgb(0,0,0)" />
  <polygon fill="rgb(0,0,0)" points="704,359 700,352 708,352 704,359" stroke="rgb(0,0,0)" />
  <path d="M 704 400 L 704 428" fill="none" stroke="rgb(0,0,0)" />
  <polygon fill="rgb(0,0,0)" points="704,435 700,428 708,428 704,435" stroke="rgb(0,0,0)" />
  <path d="M 896 320 L 896 352" fill="none" stroke="rgb(0,0,0)" />
  <polygon fill="rgb(0,0,0)" points="896,359 892,352 900,352 896,359" stroke="rgb(0,0,0)" />
  <path d="M 896 400 L 896 428" fill="none" stroke="rgb(0,0,0)" />
  <polygon fill="rgb(0,0,0)" points="896,435 892,428 900,428 896,435" stroke="rgb(0,0,0)" />
  <path d="M 1088 240 L 1088 272" fill="none" stroke="rgb(0,0,0)" />
  <polygon fill="rgb(0,0,0)" points="1088,279 1084,272 1092,272 1088,279" stroke="rgb(0,0,0)" />
  <path d="M 1088 320 L 1088 348" fill="none" stroke="rgb(0,0,0)" />
  <polygon fill="rgb(0,0,0)" points="1088,355 1084,348 1092,348 1088,355" stroke="rgb(0,0,0)" />
  <path d="M 1280 240 L 1280 260" fill="none" stroke="rgb(0,0,0)" />
  <path d="M 1280 260 L 1664 260" fill="none" stroke="rgb(0,0,0)" />
  <path d="M 1664 260 L 1664 272" fill="none" stroke="rgb(0,0,0)" />
  <polygon fill="rgb(0,0,0)" points="1664,279 1660,272 1668,272 1664,279" stroke="rgb(0,0,0)" />
  <path d="M 1280 240 L 1280 272" fill="none" stroke="rgb(0,0,0)" />
  <polygon fill="rgb(0,0,0)" points="1280,279 1276,272 1284,272 1280,279" stroke="rgb(0,0,0)" />
  <path d="M 1280 240 L 1280 260" fill="none" stroke="rgb(0,0,0)" />
  <path d="M 1280 260 L 1472 260" fill="none" stroke="rgb(0,0,0)" />
  <path d="M 1472 260 L 1472 272" fill="none" stroke="rgb(0,0,0)" />
  <polygon fill="rgb(0,0,0)" points="1472,279 1468,272 1476,272 1472,279" stroke="rgb(0,0,0)" />
  <path d="M 1280 320 L 1280 348" fill="none" stroke="rgb(0,0,0)" />
  <polygon fill="rgb(0,0,0)" points="1280,355 1276,348 1284,348 1280,355" stroke="rgb(0,0,0)" />
  <path d="M 1472 320 L 1472 352" fill="none" stroke="rgb(0,0,0)" />
  <polygon fill="rgb(0,0,0)" points="1472,359 1468,352 1476,352 1472,359" stroke="rgb(0,0,0)" />
  <path d="M 1472 400 L 1472 428" fill="none" stroke="rgb(0,0,0)" />
  <polygon fill="rgb(0,0,0)" points="1472,435 1468,428 1476,428 1472,435" stroke="rgb(0,0,0)" />
  <path d="M 1664 320 L 1664 340" fill="none" stroke="rgb(0,0,0)" />
  <path d="M 1664 340 L 1856 340" fill="none" stroke="rgb(0,0,0)" />
  <path d="M 1856 340 L 1856 352" fill="none" stroke="rgb(0,0,0)" />
  <polygon fill="rgb(0,0,0)" points="1856,359 1852,352 1860,352 1856,359" stroke="rgb(0,0,0)" />
  <path d="M 1664 320 L 1664 340" fill="none" stroke="rgb(0,0,0)" />
  <path d="M 1664 340 L 2048 340" fill="none" stroke="rgb(0,0,0)" />
  <path d="M 2048 340 L 2048 352" fill="none" stroke="rgb(0,0,0)" />
  <polygon fill="rgb(0,0,0)" points="2048,359 2044,352 2052,352 2048,359" stroke="rgb(0,0,0)" />
  <path d="M 1664 320 L 1664 352" fill="none" stroke="rgb(0,0,0)" />
  <polygon fill="rgb(0,0,0)" points="1664,359 1660,352 1668,352 1664,359" stroke="rgb(0,0,0)" />
  <path d="M 1664 400 L 1664 428" fill="none" stroke="rgb(0,0,0)" />
  <polygon fill="rgb(0,0,0)" points="1664,435 1660,428 1668,428 1664,435" stroke="rgb(0,0,0)" />
  <path d="M 1856 400 L 1856 432" fill="none" stroke="rgb(0,0,0)" />
  <polygon fill="rgb(0,0,0)" points="1856,439 1852,432 1860,432 1856,439" stroke="rgb(0,0,0)" />
  <path d="M 1856 480 L 1856 508" fill="none" stroke="rgb(0,0,0)" />
  <polygon fill="rgb(0,0,0)" points="1856,515 1852,508 1860,508 1856,515" stroke="rgb(0,0,0)" />
  <path d="M 2048 400 L 2048 432" fill="none" stroke="rgb(0,0,0)" />
  <polygon fill="rgb(0,0,0)" points="2048,439 2044,432 2052,432 2048,439" stroke="rgb(0,0,0)" />
  <path d="M 2048 480 L 2048 508" fill="none" stroke="rgb(0,0,0)" />
  <polygon fill="rgb(0,0,0)" points="2048,515 2044,508 2052,508 2048,515" stroke="rgb(0,0,0)" />
</svg>
